<?xml version="1.0" encoding="UTF-8"?>
<svg version="1.1" viewBox="0 0 1116 1496" width="1280" height="1280" xmlns="http://www.w3.org/2000/svg">
<path transform="translate(0)" d="m0 0h1116v1496h-1116z" fill="#FCFCFC"/>
<path transform="translate(186,41)" d="m0 0h361v30h90l1 13 1 3v13h29l1 1v29h28l2 1v29h28l2 1v60h30v211l-30 1-1 29-59 1v29l28 1 2 1v28l-30 1v29l60 1v-90h28l2 1v28h109l7 1 5-1 1 1v30h59l1 29 59 1 1 1v29h29l1 1v29h30l1 29 28 1 1 1v120l-1 1h-29v29h-30l-1-1v-28l3-1h25l2 1v-121h-29l-1-1v-29h-30v-30h-60l-1-30h-58l-2-1v-29l-35 1h-27l-4 5h-2l-5-6-4 2 1 4 13 14 3 4-1 4-3-2-8 1-5 3-4-1 2-5 6-4v-5l-10 5-3 5v7l4 4 7-1 5-3h4v5l-9 6 1 5 8-4 5-6h1v21h30l1 120 62 1h28l2 60h56l2 1v30h30v30h-90v-30h-30l-1-2v-10l10-1 1-12h-5v7l-5-1v-17l-1-1v-24h-150v31h30v60h30v14l-5 3v4l2-3h3l-1 5-1 1v5l2 1v30h30v60h32v120l-2 2h-28v28h29l1 1v30h59v30h30l1 1v29h29l1 1 1 29h28l1 1 1 29h28l1 1v151h-30v30h-31v30h-121v-30h-30v-60h-30v30h-120v-30h-30l-1-1v-59h-60v-30h-89l-1-1v-30l179-1 2-59h-181v59h-30v-29h-31v-30h-30l-1-1v-59h-28v-91h29l1 31v58l28 1v-30l1-60 1-1h29v-29l1-1h29v-30h-121v60h-30v-90h-30v30l-3-1 1-5-5 3-1 3h-11l-3-4-4 1v3h-4v-30h-90v-30h90v-30h-90v-30h90v-30h-90v-30l1-2 10-1-4-3-4-4 1-4-4-1v-14l-60-1v60h-30v60h-31v-60h-30l1 30v30h28l1 30v60h-31v-60h-29v-90h29v-60l1-1h29l1-30 29-1 1-59 1-1h29v-29h-29v-30h29 2l28-1h31v60l-30 1v30l30-1v-29l5-1h55l30 1v-61h-30v-29h150v29l-28 1h-59l-3-1v31l91-1 1-29h29v60l61-1h24l5 1v59h-29l-1-29h-121v29h-29l-1-29-30-1 1 30 29 1v31h30v30h122v-30h30v-31l30-1v-60h-30v-29l59-1 1-29h31v-212h-31v-30h-30v-30h-31l1 11v14l-1 5h-150v-30h120v-30h-93l-6-7-5-5v-2h-3l2 7-3 2-1 5h-72v-30h-181v28l-1 2h-29v301h-30v-30l-2 1h-28l-1-2v-29h-29v-91h29v-30h-29v-241h29v-60l1-1h30v-30h30v-29h61z" fill="#724324"/>
<path transform="translate(820,583)" d="m0 0h29l1 120 62 1h28l2 60h56l2 1v30h30v30h-90v-30h-30l-1-2v-10l10-1 1-12h-5v7l-5-1v-17l-1-1v-24h-150v31h30v60h30v14l-5 3v4l2-3h3l-1 5-1 1v5l2 1v30h30v60h32v120l-2 2h-28v28h29l1 1v30h59v30h30l1 1v29h29l1 1 1 29h28l1 1 1 29h28l1 1v151h-30v30h-31v30h-121v-30h-30v-60h-30v30h-120v-30h-30l-1-1v-59h-60v-30h-89l-1-1v-30l179-1 2-59h-181v59h-30v-29h-31v-30h-30l-1-1v-59h-28v-91h29l1 31v58l28 1v-30l1-60 1-1h29v-29l1-1h29v-30h-121v60h-30v-90h-30v30l-3-1 1-5-5 3-1 3h-11l-3-4-4 1v3h-4v-30h-90v-30h90v-30h-90v-30h90v-30h-90v-30l1-2 10-1-4-3-4-4 1-4-4-1v-14l-60-1v60h-30v60h-31v-60h-30l1 30v30h28l1 30v60h-31v-60h-29v-90h29v-60l1-1h29l1-30 29-1 1-59 1-1h29v-29h-29v-30h29 2l28-1h31v60l-30 1v30l30-1v-29l5-1h55l30 1v-61h-30v-29h150v29l-28 1h-59l-3-1v31l91-1 1-29h29v60l61-1h24l5 1v59h-29l-1-29h-121v29h-29l-1-29-30-1v31l-28 1-1 28h29l1 1v150h28l2 1 1 28h208l1-28 1-1h136l2-4 3-2h6l5 5v2h4l2 4h6v-2l-3 1-2-1 1-5 3 1 1 2 4 1v-2l12-1v-8l6-2 1-2h3l-2-5-3-3-5-7-29-1v-60l-30-1v-90h29l1-61 30 1v30l21-1 39 1v-60z" fill="#F7C2AC"/>
<path transform="translate(155,282)" d="m0 0h181v30h72v-5l4-2-2-3v-4h3l3 4v2l4 2 4 5 93 1v30h-120v30h150v-30h31v30h30v30h31v212h-31v29l-1 1h-59v29h30l1 2v58l-1 1h-30v31h-30v30h-122v-30h-30v-31h-29l-1-1v-30h30l1 1v29h29v-29l2-1h119l1 1v29h29v-59h-90v-60h-29v29l-1 1h-91v-31h90v-29h-150v29h30v61h-90v29l-2 1h-28l-1-31h31v-60l-31 1h-28v28h-1l-1-27-29-1v29h-1v-29h-29v-1h29l-1-150v-121l1-30h29z" fill="#F6C1AB"/>
<path transform="translate(368,945)" d="m0 0h209v30h80l1 2 1-2h40v30h60v30h-60l-1-29h-179l-1 29-1 1h-29v120h211v-30l29-1v-28l-29-1v-30l59-1 1-28h30v28h59l1-120h32v120l-2 2h-28v28h29l1 1v30h59v30h30l1 1v29h29l1 1 1 29h28l1 1 1 29h28l1 1v151h-30v30h-31v30h-121v-30h-30v-60h-30v30h-120v-30h-30l-1-1v-59h-60v-30h-89l-1-1v-30l179-1 2-59h-181v59h-30v-29h-31v-30h-30l-1-1v-59h-28v-91h29l1 31v58l28 1v-30l1-60 1-1h29v-29l1-1h29v-30h-121v60h-29z" fill="#810E11"/>
<path transform="translate(729,463)" d="m0 0h28l2 1v28h109l7 1 5-1 1 1v30h59l1 29 59 1 1 1v29h29l1 1v29h30l1 29 28 1 1 1v120l-1 1h-29v29h-30l-1-1v-28l3-1h25l2 1v-121h-29l-1-1v-29h-30v-30h-60l-1-30h-58l-2-1v-29l-35 1h-27l-4 5h-2l-5-6-4 2 1 4 13 14 3 4-1 4-3-2-8 1-5 3-4-1 2-5 6-4v-5l-10 5-3 5v7l4 4 7-1 5-3h4v5l-9 6 1 5 8-4 5-6h1l1 21v61l-1 60h-60v-30h-29l-1 61-30-1v90h27l3 1v60h29l6 8v2l3 1 1 5h-3l-2 4h-5l1 8-1 1h-12v2l-5-1-1-2h-2l-1 4h5v2l-6 1-2-2v-3h-4l-5-6h-6l-5 5-136 1-1 28-1 1h-208l-1-1v-28l-30-1-1-150-29-1v-28l1-1 29-1 29 1v31h30v30h122v-30h30v-31l30-1 1-28 1-1 27-1 1-28 1-1 29-1v-28l1-1 21-1 6 1 2-61 30-1h30v-29z" fill="#CE0017"/>
<path transform="translate(155,1155)" d="m0 0h181v30h30v30h30v182h-29l-1 30h-30v31h-182l-1-1v-27l1-3-7 1h-23l-1-1-1-30h-27l-2-2v-178l1-2h30v-30h31z" fill="#FBFBFB"/>
<path transform="translate(368,945)" d="m0 0h209v30h80l1 2 1-2h40v30h60v30h-60l-1-29h-179l-1 29-1 1h-29v120h211v-30l29-1v-28l-29-1v-30l59-1 1-28h30v28h59l1-120h30v120l-1 1h-20l-8 1-1 10-1-2h-2l-1 6 4 4v9l-5-2-2 4 9 9 6 7-1 4-4 2-5-1-11-12-3-2-3 4 11 12 5 4h8l6-4 4-7-9-10-4-5h9l6 7 4 2 7-1 2-1v22h-30v121h-30v29h-30v-28l4-2h25l1-91 2-4v-8l-2-2h-7l-8 4-3-1 1-4 5-4 2-1v-5l-7 3-5 5-2 4 1 6 4 3 6-1 8-4 2 1-1 5-7 5-49-1v28l-1 2-28 1h-212v59h-30v-29h-31v-30h-30l-1-1v-59h-28v-91h29l1 31v58l28 1v-30l1-60 1-1h29v-29l1-1h29v-30h-121v60h-29z" fill="#8D8B8D"/>
<path transform="translate(704,928)" d="m0 0h2l5 5 5 6-1 3h-3v2l137 1v121l-60-1v-28h-30v28l-1 1h-59v30h30l-1 29-2 1h-27v30h-211v-120l29-1 1-29 1-1h179l1 1v29h60v-30h-60v-30l-25 1-15-1-1 3-1-3h-79v-30l125-1-5-7v-2h3l1 4h3l1 2 3 1-1-5-2-4-3-1z" fill="#F6C1AB"/>
<path transform="translate(820,583)" d="m0 0h29l1 120 62 1h28l2 60h56l2 1v30h30v30h-90v-30h-30l-1-2v-10l10-1 1-12h-5v7l-5-1v-17l-1-1v-24h-150v31h30v60h30v14l-5 3v4l2-3h3l-1 5-1 1v5l2 1v30h30v60h-138l1-3 3-1-2-4-4-5-3-2v-2l-2 1v3l5 5 1 3-1 2-4-1v-2h-3l-1-4h-3l6 10h-126v-28l1-2h138l4 6 6 7v2l3-1-2-4v-4l2-6h4l2 4h6v-2l-3 1-2-1 1-5 3 1 1 2 4 1v-2l12-1v-8l6-2 1-2h3l-2-5-3-3-5-7-29-1v-60l-30-1v-90h29l1-61 30 1v30l21-1 39 1v-60z" fill="#810D11"/>
<path transform="translate(156,765)" d="m0 0h61l-1 15 4 1 1 6 7 3v3l-10 1-2 1v30l2-1h58l30 1v30h-90v30h90v30h-90v30h90v60h-60v31l-2 1h-119l-1-1v-31h-29l-1-90v-30h-28l-1-30v-30h30v60h31v-60h30z" fill="#F6C1AB"/>
<path transform="translate(804,523)" d="m0 0 4 2 3 3v2l6-6h62v29h60l1 1v30h60v30h30l1 29 29 1v121h-30l1 28h28l1 2h-29v29h-1v-29h-30v-30h-59l-1-32v-29l-30 1-61-1v-121h-30l-1-19-8 7-5 2-2-6 9-6 1-5-7 3-4 2-7-1-3-4v-7l4-6 7-4h3l1 5-7 5-1 4 5-1 6-3 7 1 1 1-1-4-9-10-7-8 1-4z" fill="#F6C1AB"/>
<path transform="translate(155,1155)" d="m0 0h181v30h30v30h30v182h-29l-1 30h-30v29h-181v-17l5 1 1-3-6-8v-2l18-1h41v-29l2-1h58l2 1v29h59v-29h-24l-6-2v-28l1-1h30v-30h30l-1-90-29-1v-30h-31v-30h-121v30l-29 1-1 29h-29v90l28 1 1 1 1 28 29 1v14h-2l-3-3 1 6 3 2-1 4 2 2v5l-2 1-5-3-1-2h-2l-1 5h-14l-4-1v12l-8 2-3 3-3-1-5-6-4 3 11 14 1 3h-5l-2-5-7 3-5 2v-30l-3 1h-27l-2-2v-178l1-2h30v-30h31z" fill="#19161B"/>
<path transform="translate(35,191)" d="m0 0 29 1 1 30v90l-4 5v7l4 1v107h29v-120l3-1 27 1v-30l1-25 9-1 5-2 5 1-2 5-8 4v6l12-6 3-5v-7l5 1 1 2 4-1 2-2h176v29h104l6 9v2h2l2 7 8-1 1-8-2-2-6-1v-9l6 5 1 4h4l-2-6 8 1 47-1 2 1v29h-87l2-4h3l-2-5-4-4-3-4-3-1 3 5 3 4-1 4h-3l-6-7h-2l2 4 3 3 3 5-4-1-4-5-5-5v-2h-3l2 7-3 2-1 5h-72v-30h-181v28l-1 2h-29v301h-30v-30l-2 1h-28l-1-2v-29h-29v-91h29v-30h-29z" fill="#1B171C"/>
<path transform="translate(729,222)" d="m0 0h30v210l-30 1-1 29-59 1v29l28 1 2 1v28l-30 1v29l59 1v29l-30 1h-30v29l-1 33-8-1-20 1-1 28-2 1-27 1-1 28-1 1-28 1-1-32h-30v-29l59-1 1-29h31v-212h-31v-30h-29v-30h60v30h89l-1-121 1-26z" fill="#1A161B"/>
<path transform="translate(805,1130)" d="m0 0h4l1 5-8 6v3l6-2 4-2h7l3 3v8l-2 4-1 91-1 1h-27l-1 1-1 28h30v2h-29v28l-1 2h-30v28h-30v-28h-30v60h-30l-1-1v-59h-60v-30h-89l-1-1v-30l179-1 2-59 31-1h28l1-30h49l6-4 2-5-5 1-8 4-5-1-3-3-1-6 4-7z" fill="#7F171B"/>
<path transform="translate(276,584)" d="m0 0h150v29l-28 1h-59l-3-1v31l91-1 1-29h29v60l61-1h24l5 1v59h-29l-1-29h-121v29h-29l-1-29h-33l-7-9-5-1-3 2-1 5h3l1-4h3l-2 4-2 3-4-1-1-4h-3l3 9-4-1-2-3h-33l-60-1v-29l5-1h55l30 1v-61h-30z" fill="#1B171B"/>
<path transform="translate(186,41)" d="m0 0h361v60h-201v4l-5 3-13-4 4 7 1 4-5 2-10-13-2-3-4 1-2 3h-6l-2 1 1 7 6 7h5l2-6 6-1 1 1-1 9-5 4-2 1h-7l-8-7-6-10v-6l2-4h-110z" fill="#995B32"/>
<path transform="translate(820,583)" d="m0 0h29l1 120 62 1h28l2 60h56l2 1v30h30v30h-90v-30h-30l-1-2v-10l10-1 1-12h-5v7l-5-1v-17l-1-1v-24h-150v31h30v60h-29l-1-1-1-58-29-1-1-30 1-62 30 1v30l21-1 39 1v-60z" fill="#19161B"/>
<path transform="translate(125,71)" d="m0 0h1v30h-30v29h29v31h30l1 4v26l27-1 5 6 5-3 1-4-2-2 1-7 5 2 2 3 4-1h4l2 4-3 3 1 4 6 7h9l1 5-7 4-6-2-7-7-3-4-5 2-2 3 8 10 7-1 3 5-6 4h-6l-5-4-7-9-2-1v6l9 12-1 5-7 7-2 1h-9l-8-9-5-7-4 1 5 4 10 15v3l-5 2-9-13-4-4-5 1-1 5 11 16-3 4-4-1-1-2h-3v6l-4 6-9 5h-3l-1-6 9-5 1-4-6 1-9 2-3-1v25l-1 30h-30v120h-29v-107l-5-1v-7l4-5v-120h-28v-1h28v-60l1-1h30v-30h30z" fill="#714325"/>
<path transform="translate(879,945)" d="m0 0h2v120l-2 2h-28v28h29l1 1v30h59v1h-61v149l-30 1v59l-29 1-1 61h-120v-90h30v28h30v-28h30l1-30h29v-31h30v-121h30l-1-21-4 2-6-1-8-7v-2l-8 1 5 5 8 9-4 7-5 4-2 1h-8l-8-7-9-10 5-5 15 15 7-1-1-5-14-15 2-4h4l1 1 1-8-4-2-1-3 2-5h2l1-8 1-1 9-1h19z" fill="#F6AB0A"/>
<path transform="translate(849,945)" d="m0 0h30v120l-1 1h-20l-8 1-1 10-1-2h-2l-1 6 4 4v9l-5-2-2 4 9 9 6 7-1 4-4 2-5-1-11-12-3-2-3 4 11 12 5 4h8l6-4 4-7-9-10-4-5h9l6 7 4 2 7-1 2-1v22h-30v121h-30v29h-30v-28l4-2h25l1-91 2-4v-8l-2-2h-7l-8 4-3-1 1-4 5-4 2-1v-5l-7 3-5 5-2 4 1 6 4 3 6-1 8-4 2 1-1 5-7 5-49-1v-30h-30v-30h-30v-30l59-1 1-28h30v28h59z" fill="#1B171B"/>
<path transform="translate(410,298)" d="m0 0h3l3 4v2l4 2 4 5 93 1v30h-120v30h150v-30h31v30h30v30h31v212h-31v29l-1 1-60 1 1-31 29-1h29l2-2v-27l1-1h27l1-151h-29v-28l-1-1-29-1-1-30h-29v30l-120 1-1 2v26l-1 1h-60v-32l1-28h29v-30h-15v-5l-8-1 1 6h-38v-29l1-1h71v-5l4-2-2-3z" fill="#E0977C"/>
<path transform="translate(729,463)" d="m0 0h28l2 1v28h109l7 1 5-1 1 1v30h59l1 29 59 1 1 1v29h29l1 1v29h30l1 29 28 1 1 1v120l-1 1h-29v29h-30l-1-1v-28l3-1h25l2 1v-121h-29l-1-1v-29h-30v-30h-60l-1-30h-58l-2-1v-29l-35 1h-27l-4 5h-2l-5-6-4 2 1 4 13 14 3 4-1 4-3-2-8 1-5 3-4-1 2-5 6-4v-5l-10 5-3 5v7l4 4 7-1 5-3h4v5l-9 6 1 5 8-4 5-6h1v21h-28l-2-4v-57h-30v30l-2 1h-28z" fill="#6F7385"/>
<path transform="translate(704,928)" d="m0 0h2l5 5 5 6-1 3h-3v2l137 1v121l-60-1v-30h-30v-30h-60v-30l-25 1-15-1-1 3-1-3h-79v-30l125-1-5-7v-2h3l1 4h3l1 2 3 1-1-5-2-4-3-1z" fill="#FCFCFC"/>
<path transform="translate(547,645)" d="m0 0h1v28h30l1 2v58l-1 1h-30v31h-30v30h-122v-30h-30v-31h-29l-1-1v-30h30l1 1v29h29v-29l2-1h119l1 1v29h29v-59h-5v-1h5z" fill="#996A62"/>
<path transform="translate(368,945)" d="m0 0h209v30h80l1 2 1-2h40v30h60v30h-60l-1-29-180-1v-30h-122v60h-29z" fill="#19161B"/>
<path transform="translate(307,765)" d="m0 0h29l1 150 29 1 1 29h-31v30l-3-1 1-5-5 3-1 3h-11l-3-4-4 1v3h-4v-30h-90v-30h90v-30h-90v-30h90v-30h-90v-24l3-2v-4l87-1z" fill="#19161B"/>
<path transform="translate(849,583)" d="m0 0h1l1 6v53l1 1h56l32 1 1 29 29 1 1 29 89 1v61h-30l1 28h28l1 2h-29v29h-1v-29h-30v-30h-59l-1-32v-29l-30 1-61-1z" fill="#E1977C"/>
<path transform="translate(729,222)" d="m0 0h30v210l-32 1-58-1v-30h-61v-30h-29v-30h60v30h89l-1-121 1-26z" fill="#5B351C"/>
<path transform="translate(759,522)" d="m0 0h30l1 34v25l1 1 29 1v61l-1 60h-60v-30h-29l-1-1-1-90v-30l31-1z" fill="#CF0017"/>
<path transform="translate(149,252)" d="m0 0 5 1 1 2 4-1 2-2h176v29h104l6 9v2h2l2 7 8-1 1-8-2-2-6-1v-9l6 5 1 4h4l-2-6 8 1 47-1 2 1v29h-87l2-4h3l-2-5-4-4-3-4-3-1 3 5 3 4-1 4h-3l-6-7h-2l2 4 3 3 3 5-4-1-4-5-5-5v-2h-3l2 7-3 2-1 5h-72v-30h-181v28l-1 2h-29v30h-1v-60l1-25 9-1 5-2 5 1-2 5-8 4v6l12-6 3-5z" fill="#19161B"/>
<path transform="translate(124,1185)" d="m0 0h60v30l-29 1-1 29h-29v90l28 1 1 1 1 28 29 1v14h-2l-3-3 1 6 3 2-1 4 2 2v5l-2 1-5-3-1-2h-2l-1 5h-14l-4-1v12l-8 2-3 3-3-1-5-6-4 3 11 14 1 3h-5l-2-5-7 3-5 2v-30l-3 1h-27l-2-2v-178l1-2h30z" fill="#246769"/>
<path transform="translate(336,1336)" d="m0 0h30v59h30v2h-29l-1 30h-30v29h-181v-17l5 1 1-3-6-8v-2l18-1h41v-29l2-1h58l2 1v29h59v-29h-24l-6-2v-28l1-1h30z" fill="#0B675E"/>
<path transform="translate(518,1187)" d="m0 0h181v31l-1 28-1 1h-179v29h-1l-1-28-28-1v-1h30l-1-2v-27z" fill="#3D547F"/>
<path transform="translate(186,41)" d="m0 0h361v30h-361z" fill="#1B171B"/>
<path transform="translate(216,1215)" d="m0 0h29l29 1 1 1 1 28 28 1 1 1v38l-4 8 4 10-1 3h-14l-3-4-4 2-7 3-1 5-4 1-4 2-5-6-2 4 3 4-1 4 3 2h3l7 10-1 3h-22v-3l4-3 3-1v-4l-9 5-5 6h-29l-1-1-1-28-28-1-1-1v-60h30v-29z" fill="#007368"/>
<path transform="translate(95,975)" d="m0 0h211v30h-60v31l-2 1h-119l-1-1v-31h-29z" fill="#C37358"/>
<path transform="translate(156,342)" d="m0 0h120v30h30v60h-60v-30h-90z" fill="#E1977C"/>
<path transform="translate(519 1e3)" d="m0 0h179l1 1v28l-1 1-149 1-1 1-1 29h-30v90h-29v-120l29-1 1-29z" fill="#FAE4D8"/>
<path transform="translate(911,1157)" d="m0 0h28l1 29 28 1 2 3v22l1 5 29 1v27l-1 1-28 1-1 2-1 88-4 1h-18l-7-2v-28h-28l-2-1v-148z" fill="#CF0017"/>
<path transform="translate(761,1157)" d="m0 0h27l1 1v88l-1 1-28 1-1 27-1 1h-149v-28l89-1 1-1 1-28h26v-2h2v-16l-1-13 3-1 29-1 1-27z" fill="#CE0017"/>
<path transform="translate(126,674)" d="m0 0h28l2 1v29h29l30 1 1 29 53 1 8 9 3 1-6-10h2v-3l3 1v2h2l2 5 3-2-2-4h4l2 5h6l3-3 1-2h6v29h-46l2-4 2-1-2-4-7-7-2-3-4-1 2 4v3l-3 3 1 5 4 4v2l-5-2-4-3-5 2-3 3h-80l-1 59-1 1h-28v-60l28-1 1-29h-29z" fill="#1A161B"/>
<path transform="translate(396,975)" d="m0 0h121v30l-29 1-1 29-29 1-1 60-1 30h-28l-1-2v-88h-29v90h-2v-90h-29v-1h29z" fill="#FBFBFB"/>
<path transform="translate(698,1034)" d="m0 0 91 1v2h-30v28l-1 1h-59v30h30l-1 29-2 1h-27v30h-60l-1-28v-61l1-1 29-1v-28l1-1 28-1z" fill="#DF977D"/>
<path transform="translate(488,1157)" d="m0 0h210v28l-1 1h-180l1 38v22h-30l-1-29-29-1v-29l29-1z" fill="#19161B"/>
<path transform="translate(819,885)" d="m0 0h30v60h-138l1-3 3-1-2-4-4-5-3-2v-2l-2 1v3l5 5 1 3-1 2-4-1v-2h-3l-1-4h-3l6 10h-126v-28l1-2h138l4 6 6 7v2l3-1-2-4v-4l2-6h4l2 4 7 1v-2l5-3h71z" fill="#19161B"/>
<path transform="translate(758,1277)" d="m0 0h31v31h-30v28h-30v-28h-30v60h-30v-61h-60v-29z" fill="#1A161B"/>
<path transform="translate(185,613)" d="m0 0h31v60l-30 1v30l28-1h62v25l4 1 7 9-1 2h-3l-2-5h-2l-3-3-1 4 5 6v3l-4-1-7-8-53-1-1-1v-29h-30l-29-1v-29h-28l-2-2h29v-29h-29v-30h29 2z" fill="#BA6B56"/>
<path transform="translate(698,582)" d="m0 0h30l1 1v152l-30-1v-60h-32v-62l1-29z" fill="#CCC5C3"/>
<path transform="translate(909,704)" d="m0 0h31l2 60h56l2 1v30h30v30h-90v-30h-30l-1-2v-10l10-1 1-12h-5v7l-5-1v-17l-1-1v-24h-150v-1h150z" fill="#AB6D5C"/>
<path transform="translate(879,1398)" d="m0 0h120l1 28v32h-121z" fill="#CC7E38"/>
<path transform="translate(729,463)" d="m0 0h28l2 1v28h109l2 1 4 7 5 5v17h-17l-4-6-11-13-1-2-4 2 1 4 12 14v1h-14l-7-8v-2l-5 3 2 4 1 3h-13v2l-5 5-3 1-5-6-4 2 1 4 13 14 3 4-1 4-3-2-8 1-5 3-4-1 2-5 6-4v-5l-10 5-3 5v7l4 4 7-1 5-3h4v5l-9 6 1 5 8-4 5-6h1v21h-28l-2-4v-57h-30v30l-2 1h-28z" fill="#1A161B"/>
<path transform="translate(35,191)" d="m0 0 29 1 1 30v90l-4 5v7l4 1v107h-30z" fill="#19161B"/>
<path transform="translate(215,915)" d="m0 0h1v30h90v30l-180 1-31-1v-30h119v-29z" fill="#E1987D"/>
<path transform="translate(518,312)" d="m0 0h60v30h-31l1 11v14l-1 5h-150v-30h121z" fill="#19161B"/>
<path transform="translate(729,222)" d="m0 0h30v210h-31z" fill="#19161B"/>
<path transform="translate(276,582)" d="m0 0h151l1 1v29h29l1 1v31h89v29l-29 1h-61v-60h-29v29l-1 1h-91v-31h90v-29h-150z" fill="#E1987D"/>
<path transform="translate(547,342)" d="m0 0h31v30h30v30h31v212h-31v29l-1 1-60 1 1-31 29-1h29l2-2v-27l1-1h27l1-151h-29v-28l-1-1-29-1-1-30h-30z" fill="#DF957A"/>
<path transform="translate(64,432)" d="m0 0h1v30h29l1 2v89h-30v29h-1v-29h-29v-91h29z" fill="#F7C2AC"/>
<path transform="translate(410,298)" d="m0 0h3l3 4v2l4 2 4 5 93 1v30h-136v-5l-8-1 1 6h-38v-29l1-1h71v-5l4-2-2-3z" fill="#E0987D"/>
<path transform="translate(518,1187)" d="m0 0h181v30h-181z" fill="#FAFAFA"/>
<path transform="translate(790,945)" d="m0 0h59v121l-60-1v-60h30v-59h-29z" fill="#D0CFCF"/>
<path transform="translate(155,282)" d="m0 0h181v30h-182z" fill="#E2997E"/>
<path transform="translate(385,1215)" d="m0 0h11v180l-3 1-27-1v-179z" fill="#19161B"/>
<path transform="translate(608,614)" d="m0 0h58l1 1v30l-8-1-20 1-1 28-2 1-27 1-1 28-1 1-28 1-1-32h-30v-29l59-1z" fill="#810D11"/>
<path transform="translate(880,1127)" d="m0 0h60l-1 29-29 1-1 120h-28l-1-1z" fill="#19161B"/>
<path transform="translate(273,1425)" d="m0 0 2 1 59 1 1 1v28h-180v-17l5 1 1-3-6-8v-2h11l3 4 4-1 1-3z" fill="#19161B"/>
<path transform="translate(458,1036)" d="m0 0h28l1 1v119l-30 1v28l-1 1h-28v-59l29-1z" fill="#1A161B"/>
<path transform="translate(95,1216)" d="m0 0h29v120l1 60-3 1h-27z" fill="#19161C"/>
<path transform="translate(452,278)" d="m0 0 6 5 1 4h4l-2-6 8 1 47-1 2 1v29h-87l2-4h3l-2-5-4-4-3-4-3-1 3 5 3 4-1 4h-3l-6-7h-2l2 4 3 3 3 5-4-1-4-5-5-5v-2h-3l2 7-3 2-1 5h-72v-30h-180v-1h285l6 9v2h2l2 7 8-1 1-8-2-2-6-1z" fill="#1D181C"/>
<path transform="translate(757,552)" d="m0 0h2v2h-30l1 28 1 61h86l1-1 1-57-30-1-1-2v-28l2 2v25l1 1 29 1v61l-1 60h-60v-30h-29l-1-1-1-90v-30z" fill="#810D11"/>
<path transform="translate(728,433)" d="m0 0h1v29h30v2l-30-1v90h-60l-1-1v-29l1-1h30v-28l-30-1-1-1v-29l1-1h59z" fill="#F5C1AB"/>
<path transform="translate(335,1336)" d="m0 0h1v30l-30 1v28l5 1 24 1v29h-59v-29h-62v29l-41 1h-18l7 10-2 4-4-1-1 16h181v2h-182l-1-1v-27l1-3-7 1h-23l-1-1v-31h2v30l9-5h3l2 4 5 1-9-12-4-5 4-4 6 5 1 2 4-2 3-2h6v-12l18 1v-5h4l3 3 3 1v-5l-3-2 1-3v-1l-3-4 1-5 3 2v2h2v-14h-29v-1h30v31l6 1 5 6 7 1 3-3v-2l-2 1h-6l-2-1v-3h11l1-1h68l27 1 1-30 1-1h29v-28z" fill="#CFCECE"/>
<path transform="translate(490,251)" d="m0 0 5 5 2 3h3l-1-4v-4l5 2 4-1 3-1 7 1 1 30 58-1 1 1 1 30h29l1 2v28h-30v30h-1v-60h-60v30h-1v-30h-93v-3l-2-5-4-2v-4l4 2 4 4v2l3-1-1-4-4-5v-3l4 1 3 4v2l4 2 1 5-4 2-1 2h87v-29l-52 1-4-1 1 5h-4l-4-6-2-1v6l6 2 2 2v5l-4 4h-6l-2-4v-3h-2l-5-7-1-4 7-6h2l-2-6 4-1 2 3v3h2l2-6 6-3 5 4-1-8 4 1 1 2 3 1v-3h-2l1-5 3 1 2 5v3l10 1 2-3h3l-3-7-3-5z" fill="#5B351C"/>
<path transform="translate(887,1367)" d="m0 0h24v2l-6 1v4h7l4-3 1-4 52 1 1 2v28h-91v30h-28l-1-1v-59z" fill="#1A161B"/>
<path transform="translate(1031,1248)" d="m0 0h29v149h-29z" fill="#19161B"/>
<path transform="translate(1e3 1248)" d="m0 0h29v120l-1 28-1 1h-26l-2-1v-28z" fill="#F7AC0A"/>
<path transform="translate(851,1127)" d="m0 0h28v149h-30v-28l1-27v-90z" fill="#F7AC0A"/>
<path transform="translate(160,250)" d="m0 0h176l2 1h134l9 1-2 8h3l1 6h-3l-3-8h-2l-1 4h2v3l-4-1-1-2-3-1 2 9-7-4-2 2h-3l-1 7-3-1-2-6-3 1 1 6-10 7h-100l-3-1v-29h-177z" fill="#5B351C"/>
<path transform="translate(156,765)" d="m0 0h61l-1 15 4 1 1 6 7 3v3l-10 1-2 1v7l-1 1h-5l-7-8h-17v10l2 7 4 5v3h-3l-1 4-10 2 1 4-3-1-4-4h-2l4 6v2h-3l-1 3-6 1-2-4 2-6h2v-2l-3 1-1 2h-2l-1-2-3 1v6l3-1 3 4-1 6-5 2-1 10-1 1h-26l-2 3v-33h30z" fill="#FAE3D8"/>
<path transform="translate(759,1037)" d="m0 0h30v28h59v2h-59v29h-90v-30l59-1z" fill="#BC7359"/>
<path transform="translate(488,432)" d="m0 0h59l1 1v59l-1 1h-60z" fill="#FCFBFB"/>
<path transform="translate(699,1368)" d="m0 0h120v30h-120z" fill="#1C191E"/>
<path transform="translate(249,643)" d="m0 0h26l31 1v30h-90v29l-2 1h-28l-1-31h31v-29z" fill="#DF977D"/>
<path transform="translate(156,342)" d="m0 0h120v30h-120z" fill="#19161B"/>
<path transform="translate(880,1428)" d="m0 0h120v30h-119l-1-2z" fill="#19161B"/>
<path transform="translate(126 1e3)" d="m0 0h120v27l-3 3h-117z" fill="#1B171B"/>
<path transform="translate(699,584)" d="m0 0h29v60h-22l-7-1v30h-30v-60l29-1z" fill="#FCFCFC"/>
<path transform="translate(850,945)" d="m0 0h29v120l-1 1h-19l-9-1z" fill="#19161B"/>
<path transform="translate(971,1248)" d="m0 0h29v119h-30v-30z" fill="#19161B"/>
<path transform="translate(971,765)" d="m0 0h29v30h30v29h-89v-29h30z" fill="#1A161B"/>
<path transform="translate(398,734)" d="m0 0h118l1 1v28h-119z" fill="#1B171C"/>
<path transform="translate(76,311)" d="m0 0 18 1v120h-29v-114l8-1v-5z" fill="#5B351C"/>
<path transform="translate(1062,644)" d="m0 0h28v119l-28 1-1-1v-89z" fill="#1A161B"/>
<path transform="translate(321,693)" d="m0 0 5 1 7 9 3 1v30l-28 1-1 28h29l1 1v150h28l2 1 1 28h208l1-28 1-1h136l2-4 3-2h6l5 5v7l-2 4 3 3-1 3h-3l-10-13v-2l-3 1h-108l-27-1-1 60h-1v-30h-209v89l-2 1v-119h-29l-1-1v-150h-29v29h-1v-30l-2 1h-43l-3-1v-3l-5-1-2-4 1-4h6l3 3 1-2 3 3-1 3-3 3 45 1v-29h-6l-2 5-2 1h-6l-2-2v-4h-5l-4-5-3-1v-24l33-1 2 4 4 1-3-6v-3h3l2 4 3 1 2-4 2-3h-3l-1 4h-3v-5z" fill="#820E11"/>
<path transform="translate(398,764)" d="m0 0 118 1v28h-118z" fill="#FCFCFC"/>
<path transform="translate(398,705)" d="m0 0h118v28h-118z" fill="#E2987D"/>
<path transform="translate(216,131)" d="m0 0h30v12l7-4 3 1 1 5-6 4-1 4 5-1 4-2h7l5 5 1 5 4 1v30h29l1 1v29l-2 1h-23l-5-1-1-29-29-1-1-9-13-13-1-8h-15z" fill="#995B32"/>
<path transform="translate(637,84)" d="m0 0 2 3v13h10v1h-12v2l8-1 5 5v7l-4 6-8 5-1 6h-88l-1-1v-29h75l2-5 9-5h3z" fill="#985A31"/>
<path transform="translate(125,161)" d="m0 0h30l1 4v26l27-1 5 6 5-3 1-4-2-2 1-7 5 2 2 3 4-1h4l2 4-3 3 1 4 6 7h9l1 5-7 4-6-2-7-7-3-4-5 2-2 3 8 10 7-1 3 5-6 4h-6l-5-4-7-9-2-1v6l9 12-1 5-7 7-2 1h-9l-8-9-5-7-7-1-1-29-29-1-1-1z" fill="#995B32"/>
<path transform="translate(335,1155)" d="m0 0h1v30h30v30h19v1h-19v30l-30-1v-30h-31v-30h30z" fill="#007469"/>
<path transform="translate(336,1336)" d="m0 0h30v59h30v2h-29l-1 28-1 1h-29v-31l-2-1h2l-1-27z" fill="#116760"/>
<path transform="translate(336,644)" d="m0 0h91v29l-1 1h-89l-1-1z" fill="#801112"/>
<path transform="translate(579,342)" d="m0 0h60v60h-31v-30h-29z" fill="#5A351F"/>
<path transform="translate(518,1247)" d="m0 0h89l1 1v28h-90z" fill="#19161B"/>
<path transform="translate(35,463)" d="m0 0h29l1 60v29h-30z" fill="#1A161B"/>
<path transform="translate(35,825)" d="m0 0h29l1 60v19l-1 2h-2l-1 9h-26z" fill="#19161B"/>
<path transform="translate(216,433)" d="m0 0h29l1 1v36l-2 8h-6v6l8-1v9h-60v-30h29z" fill="#19161B"/>
<path transform="translate(458,433)" d="m0 0h28l1 2v57h-59v-30h28v-28z" fill="#1A161B"/>
<path transform="translate(338,613)" d="m0 0h65l23 1v29h-88z" fill="#FCFBFB"/>
<path transform="translate(414)" d="m0 0h14l3 5v34h117l1 1v30h89l1 5-2 1v-5h-90v-30h-361v30h-60v-2h58v-29l1-1h207l-1-36 1-1z" fill="#DBDBDB"/>
<path transform="translate(1e3 1187)" d="m0 0h1l1 29h28l1 1 1 29h28l1 1v151h-30v30h-31l-1-2v-28h-29v-30h30v-121h30v-29h-29l-1-1zm1 61-1 120v28l2 1h26l1-1 1-28v-120zm30 0v149h29v-149z" fill="#CF7F37"/>
<path transform="translate(398,1036)" d="m0 0h28v90h-28z" fill="#19161B"/>
<path transform="translate(548,71)" d="m0 0h89v20l-10 5h-2l-2 4h-75z" fill="#19161B"/>
<path transform="translate(879,945)" d="m0 0h2v120l-2 2h-28v28h29l1 1v30h59v1h-89v94l-2 55 3 1-33 1v-31h30v-121h30l-1-21-4 2-6-1-8-7v-2l-8 1 5 5 8 9-4 7-5 4-2 1h-8l-8-7-9-10 5-5 15 15 7-1-1-5-14-15 2-4h4l1 1 1-8-4-2-1-3 2-5h2l1-8 1-1 9-1h19z" fill="#D18138"/>
<path transform="translate(396,975)" d="m0 0 2 1-1 59h31v31h28v-31l2 1-1 60-1 30h-28l-1-2v-88h-29v90h-2v-90h-29v-1h29z" fill="#D0CECF"/>
<path transform="translate(804,523)" d="m0 0 4 2 3 3v2l6-6h62v29h-49l-7 1-2 1-1 5h-1l-1-12-10-11-7-8 1-4z" fill="#F9E4DA"/>
<path transform="translate(246,432)" d="m0 0h30l1 60-1 1h-30v-10l-8 1v-6h6l1-8z" fill="#FCFBFA"/>
<path transform="translate(607,612)" d="m0 0h29v1l-27 1-1 29-1 1-60 1 1-31 29-1h29z" fill="#DE9479"/>
<path transform="translate(174,1391)" d="m0 0 3 1 3 3 2 1 2 5 6 7 1 4-1 4-4 2-1 4-1 1h-6v2l-7 2h-16l7 10-2 4-4-1-1 16h181v2h-182l-1-1v-27l1-3-7 1h-23l-1-1v-31h2v30l9-5h3l2 4 5 1-9-12-4-5 4-4 6 5 1 2 4-2 3-2h6v-12l18 1v-5z" fill="#D1D0D0"/>
<path transform="translate(488,161)" d="m0 0h29l1 30h29l1 1v29l-4 1h-23l-4-2v-29h-29l-1-5v-21z" fill="#995B32"/>
<path transform="translate(125,674)" d="m0 0h1v60h29v29l-1 1h-29l-30-1v-29l29-1z" fill="#B96752"/>
<path transform="translate(699,1308)" d="m0 0h30v28h30v-28h30v28l-1 1-27 1h-62z" fill="#C77A36"/>
<path transform="translate(850,673)" d="m0 0 59 1 1 1 1 30-60-1-1-1z" fill="#C27356"/>
<path transform="translate(850,1278)" d="m0 0h30v59l-1 1h-28l-1-1z" fill="#19161B"/>
<path transform="translate(246,975)" d="m0 0h60v30h-60z" fill="#1B171B"/>
<path transform="translate(95,765)" d="m0 0h30v59l-1 1h-28l-1-1z" fill="#F6E2D8"/>
<path transform="translate(66,915)" d="m0 0h29v60h-30v-57z" fill="#1B171C"/>
<path transform="translate(65,131)" d="m0 0h30v59l-1 1h-29z" fill="#19161B"/>
<path transform="translate(156,644)" d="m0 0h60v29l-31 1h-29z" fill="#1B171B"/>
<path transform="translate(548,644)" d="m0 0h60v29l-1 1h-28l-31-1z" fill="#1B161B"/>
<path transform="translate(185,613)" d="m0 0h31v31l-60-1 1-29z" fill="#E0967B"/>
<path transform="translate(879,553)" d="m0 0h60l1 1v29h-59l-1-1z" fill="#FAE3D7"/>
<path transform="translate(549,674)" d="m0 0 28 1 1 28v31h-30v-59z" fill="#D2CCCB"/>
<path transform="translate(699,161)" d="m0 0h30l-1 59-1 1h-28z" fill="#19161B"/>
<path transform="translate(699,1006)" d="m0 0h60v29h-60z" fill="#19161B"/>
<path transform="translate(276,523)" d="m0 0h60v29h-60z" fill="#1A181E"/>
<path transform="translate(126,71)" d="m0 0h59v29l-1 1h-58z" fill="#19161B"/>
<path transform="translate(96,825)" d="m0 0h28l1 30v30h-30v-29z" fill="#1B171C"/>
<path transform="translate(881,523)" d="m0 0h59v29h-60v-28z" fill="#1C191E"/>
<path transform="translate(156,523)" d="m0 0h57l3 1v28l-2 1-58-1z" fill="#FBE4D8"/>
<path transform="translate(940,584)" d="m0 0h60v30l-59-1-1-1z" fill="#FAE3D7"/>
<path transform="translate(519,523)" d="m0 0h57l1 1v28l-33 1h-22l-4-1v-28z" fill="#FBE4D8"/>
<path transform="translate(65,765)" d="m0 0h29v59h-29z" fill="#19161B"/>
<path transform="translate(941,554)" d="m0 0h59v29h-59z" fill="#1B171B"/>
<path transform="translate(94,762)" d="m0 0 31 1 1 1v60l28-1 1-59 1-1h82v2h-82v60h-30v60h-1l-1-30v-31l1-59h-30l1 59v32h-1v-31h-30l1 30v30h28v30h-28l-1 60h-1v-60h-3l-1-5 2-4h2v-141l1-1h29zm-29 3v59h29v-59z" fill="#C37559"/>
<path transform="translate(126,674)" d="m0 0h28l1 4v55h-29z" fill="#19161B"/>
<path transform="translate(156,704)" d="m0 0h29l30 1v28h-59z" fill="#CF0017"/>
<path transform="translate(789,825)" d="m0 0h30v14l-5 3v4l2-3h3l-1 5-1 1v5l2 1v30h-25l-2-5h-7v-7l-2-1 2-3 8 8v-5l8 1 2-3-9-3v-7l-3 2-1 6-2-1z" fill="#1B181C"/>
<path transform="translate(911,734)" d="m0 0h28l1 1v58l-1 1h-28l-1-4v-7l9-1 1-12h-5v7l-5-1v-26z" fill="#1E181B"/>
<path transform="translate(126,765)" d="m0 0h28l1 58-1 1h-28z" fill="#1A161B"/>
<path transform="translate(216,705)" d="m0 0h59v23l-1 5h-3-55z" fill="#FDFDFD"/>
<path transform="translate(425,433)" d="m0 0h1v59h-28v-58z" fill="#FDFDFD"/>
<path transform="translate(556,448)" d="m0 0h20l17 2 1 1v39l-39-1-1-7v-32z" fill="#C9A38F"/>
<path transform="translate(1057,602)" d="m0 0h39v40h-4v123l-2-1v-120l-28-1-1-1v-29h-30v-1h26z" fill="#D9D9D9"/>
<path transform="translate(74,1191)" d="m0 0h15l-1 39-3 2-18 1h-11l-7-1-1-3v-17l1-16 1-4z" fill="#DBDBDB"/>
<path transform="translate(558,1336)" d="m0 0h18l18 2 1 1-1 32-1 7-39-1v-22l2-18z" fill="#DBDBDB"/>
<path transform="translate(1056,305)" d="m0 0h37l1 1 2 28v11l-4 1h-34l-1-1-2-20v-19z" fill="#DBDBDB"/>
<path transform="translate(889,154)" d="m0 0h7l5 1 27 2 1 2 2 28v9l-1 1h-20l-17-2-2-2-2-29z" fill="#DBDBDB"/>
<path transform="translate(1060,6)" d="m0 0h38l1 2v37l-1 1-7 1h-31l-1-40z" fill="#DBDBDB"/>
<path transform="translate(216,131)" d="m0 0h30v12l7-4 3 1 1 5-6 4-1 4 5-1 4-2h7l5 5v8l-6 7-6 3-3-1-1-5 7-4 2-3v-3l-5 1-7 3-6-1-1 1h-7l2 5 5 6 5 5 2 4-3 3h-3l-7-8-7-7-1-8h-15z" fill="#995B32"/>
<path transform="translate(413,1188)" d="m0 0h12l1 1v14l-1 25-1 1-28 1v-15h-11l1-23 5-2z" fill="#DADADA"/>
<path transform="translate(125,312)" d="m0 0h1l1 271h28l1 1v31l-30-1v29h-1v-29h-29v-1h29l-1-150v-121z" fill="#E0977C"/>
<path transform="translate(252,752)" d="m0 0h6l3 3 1-2 3 3-1 3-3 3 75 1 1 1v150h28l2 1 1 28h208l1-28 1-1h136l2-4 3-2h6l5 5v7l-2 4 3 3-1 3h-3l-10-13v-2l-3 1h-108l-27-1-1 60h-1v-30h-209v89l-2 1v-119h-29l-1-1v-150h-29v29h-1v-30l-2 1h-43l-3-1v-3l-5-1-2-4z" fill="#7C2C2A"/>
<path transform="translate(638,405)" d="m0 0h1v209h-30l-1-3v-27l1-1h27l1-151z" fill="#CC937E"/>
<path transform="translate(64,432)" d="m0 0h1v30h28v1h-28l2 60h26l1-31h1v61h-30v29h-1v-29h-29v-1h30l-1-29v-60l-28 1-1-2h29z" fill="#D5947D"/>
<path transform="translate(427,432)" d="m0 0h59v1l-28 1-1 1v27l-1 1h-27l-1 29h59l1 2h-61l-1-2v-29z" fill="#89878C"/>
<path transform="translate(306,1366)" d="m0 0h30v60l30-1v2h-30v29h-1l-1-28-59-1v-30h1v29h59v-29h-24l-6-2v-28z" fill="#007368"/>
<path transform="translate(276,522)" d="m0 0h61l2 1h27v30l-29 1h-61v-2h60v-29h-60z" fill="#D5957E"/>
<path transform="translate(728,493)" d="m0 0h1v60h-60l-1-1v-29l1-1h30v29l29 1-1-2v-56z" fill="#E1977C"/>
<path transform="translate(125,71)" d="m0 0h1v30h-30v29h29v31h-29l-2-5v-22l1-3h-30v-1h30v-30h30z" fill="#925B37"/>
<path transform="translate(185,39)" d="m0 0h363l1 1v30h89l1 5-2 1v-5h-90v-30h-361v30h-60v-2h58v-29z" fill="#AAA9AC"/>
<path transform="translate(304,764)" d="m0 0h2v31l-86 1-1 4-3 1v-6l1-2 59-1v-27z" fill="#DF977D"/>
<path transform="translate(728,433)" d="m0 0h1v29h30v2h-60v28h-31v-29l1-1h59z" fill="#F7C2AC"/>
<path transform="translate(155,1365)" d="m0 0h30v31l6 1 5 6 7 1 3-3v-2l-2 1h-6l-2-1v-3h11l1-1h68l27 1v1h-26l1 28h-2v-28h-62v29l-43 1 1-2h6v-2l7-2 1-4 4-1v-6l-4-6-4-4 1-9-3-2 1-3v-1l-3-4 1-5 3 2v2h2v-14h-29z" fill="#D0CECF"/>
<path transform="translate(276,825)" d="m0 0h30v30h-90v-1l30-1h30z" fill="#DE987D"/>
<path transform="translate(1e3 764)" d="m0 0 26 1 1 28h28l1 2h-29v29h-1v-29h-30v-30z" fill="#B77158"/>
<path transform="translate(155,432)" d="m0 0h31v32h-28l-3-2z" fill="#FBF9F8"/>
<path transform="translate(186,432)" d="m0 0h60l-1 2-29-1v29l-1 1h-27l-2-1z" fill="#86868C"/>
<path transform="translate(759,522)" d="m0 0h30v32l-30-1z" fill="#C2634B"/>
<path transform="translate(127,312)" d="m0 0h27l2 1v59h-2v-30h-27z" fill="#DE987E"/>
<path transform="translate(397,191)" d="m0 0h30v30l-5 1h-22l-3-1z" fill="#995B32"/>
<path transform="translate(367,161)" d="m0 0h29l1 1v28l-1 1h-29l-1-1v-25z" fill="#995B32"/>
<path transform="translate(336,1215)" d="m0 0h49v1h-19v30l-30-1z" fill="#037167"/>
<path transform="translate(879,945)" d="m0 0h2v120l-2 2h-28v28h29l1 1v30h59v1h-60l-1-31-27 2 5 5 8 9-4 7-5 4-2 1h-8l-8-7-9-10 5-5 15 15 7-1-1-5-14-15 2-4h4l1 1 1-8-4-2-1-3 2-5h2l1-8 1-1 9-1h19z" fill="#B6B4B6"/>
<path transform="translate(547,342)" d="m0 0h31v30h-31z" fill="#DC957B"/>
<path transform="translate(123,1396)" d="m0 0h2v30l9-5h3l2 4 5 1-9-12-4-5 4-4 6 5 1 2 4-2 3-2h4l2 6v12h11v1h-11l7 10-2 4-4-1-1 16h181v2h-182l-1-1v-27l1-3-7 1h-23l-1-1z" fill="#B7B6B7"/>
<path transform="translate(577,372)" d="m0 0h31v30h-30z" fill="#E1967B"/>
<path transform="translate(65,825)" d="m0 0h30v29l-2 3v-2h-28z" fill="#F8E3D8"/>
<path transform="translate(609,372)" d="m0 0h30v30h-31z" fill="#19161B"/>
<path transform="translate(1e3 1398)" d="m0 0h30v30h-30z" fill="#1E181B"/>
<path transform="translate(336,1185)" d="m0 0h30v30h-30z" fill="#1D181B"/>
<path transform="translate(699,1157)" d="m0 0h30v30h-30z" fill="#FAFAFA"/>
<path transform="translate(699,1066)" d="m0 0h30v30h-30z" fill="#1D171B"/>
<path transform="translate(276,885)" d="m0 0h30v30h-30z" fill="#E0987E"/>
<path transform="translate(276,372)" d="m0 0h30v30h-30z" fill="#19161B"/>
<path transform="translate(336,1396)" d="m0 0h30v29l-1 1h-29z" fill="#1B171B"/>
<path transform="translate(276,945)" d="m0 0h30v30h-29l-1-1z" fill="#C47458"/>
<path transform="translate(579,342)" d="m0 0h30v29l-1 1h-29z" fill="#19161B"/>
<path transform="translate(457,131)" d="m0 0h30v30h-29l-1-1z" fill="#995B32"/>
<path transform="translate(336,131)" d="m0 0h30v29l-1 1h-29z" fill="#995B32"/>
<path transform="translate(730,1156)" d="m0 0h29v28l-1 2-29 1v-30z" fill="#415580"/>
<path transform="translate(95,975)" d="m0 0h29l1 2v28h-30z" fill="#1E181B"/>
<path transform="translate(186,674)" d="m0 0h29l1 1v28l-2 1h-28z" fill="#F8F7F6"/>
<path transform="translate(65,192)" d="m0 0h30v29l-1 1h-28l-1-2z" fill="#995B32"/>
<path transform="translate(366,734)" d="m0 0h30l1 1v28h-30l-1-10z" fill="#F9F7F6"/>
<path transform="translate(889,748)" d="m0 0 15 1 5 1 1 8 1 1v17l4 1v-7h5v10l-3 3h-8v7l-17-1-1-1-2-33z" fill="#DADADA"/>
<path transform="translate(121,281)" d="m0 0 3 1v30h-30v-29l1-1z" fill="#5B351C"/>
<path transform="translate(699,1187)" d="m0 0h28l1 1 1 12v11l-1 5-2 1h-27z" fill="#3B527F"/>
<path transform="translate(699,463)" d="m0 0h29l1 1v29l-3 1v-2h-27v-27l-2-1z" fill="#F6E3D9"/>
<path transform="translate(1033,764)" d="m0 0h25l2 1v29h-29l-1-1v-28z" fill="#1D191E"/>
<path transform="translate(93,462)" d="m0 0 2 2v28l-2 2-1-1-27-1v-29z" fill="#F6E3D9"/>
<path transform="translate(791,1246)" d="m0 0h28v30h-30v-28z" fill="#19161B"/>
<path transform="translate(336,704)" d="m0 0 30 1v29h-29l-1-1z" fill="#D1CECF"/>
<path transform="translate(609,614)" d="m0 0h30v27l-2 3h-28z" fill="#19161B"/>
<path transform="translate(367,372)" d="m0 0h29v30h-30z" fill="#1B171B"/>
<path transform="translate(126,101)" d="m0 0h29l1 9-1 21h-29z" fill="#995B32"/>
<path transform="translate(759,1308)" d="m0 0h30v28l-1 1-29 1z" fill="#D08038"/>
<path transform="translate(729,1127)" d="m0 0h30v29l-30 1z" fill="#D0CECF"/>
<path transform="translate(125,1185)" d="m0 0h29v30h-29z" fill="#1B171B"/>
<path transform="translate(759,1127)" d="m0 0h30v29h-30z" fill="#3C5280"/>
<path transform="translate(759,1037)" d="m0 0h30v29h-30z" fill="#1B171B"/>
<path transform="translate(276,493)" d="m0 0h30v29h-30z" fill="#FBE4D8"/>
<path transform="translate(699,1126)" d="m0 0h28l1 1v29h-29z" fill="#1B161B"/>
<path transform="translate(699,1096)" d="m0 0h30l-1 29-2 1h-27z" fill="#C27256"/>
<path transform="translate(94,854)" d="m0 0h1v31h-29v-30h27z" fill="#F4C1AB"/>
<path transform="translate(126,614)" d="m0 0h29l1 1v28h-30z" fill="#1F191B"/>
<path transform="translate(669,584)" d="m0 0h30v28l-1 1h-29z" fill="#D0CFCF"/>
<path transform="translate(940,1157)" d="m0 0h30v28l-1 1h-28l-1-2z" fill="#19161B"/>
<path transform="translate(307,463)" d="m0 0h29v29h-29l-1-1v-27z" fill="#FBE4D8"/>
<path transform="translate(153,1337)" d="m0 0h1l1 28 29 1v14h-2l-3-3 1 6 3 2-1 4 2 2v5l-2 1-5-3-1-2h-2l-1 5h-14l-4-1v12l-2-1 1-12v-3-21l1-4h-2z" fill="#027469"/>
<path transform="translate(699,222)" d="m0 0h30l-1 29-1 1h-28l-1-3z" fill="#985A31"/>
<path transform="translate(1031,644)" d="m0 0h29v30h-26l-3-1z" fill="#F9E3D7"/>
<path transform="translate(95,885)" d="m0 0h30v30h-29z" fill="#FBE4D8"/>
<path transform="translate(790,1278)" d="m0 0h29v29l-30 1z" fill="#D18138"/>
<path transform="translate(1e3 614)" d="m0 0h30v29h-29z" fill="#FAE3D7"/>
<path transform="translate(638,131)" d="m0 0h29l1 3-1 27h-28z" fill="#995B32"/>
<path transform="translate(971,1187)" d="m0 0h29v29h-29z" fill="#19161B"/>
<path transform="translate(458,1157)" d="m0 0h29v29h-29z" fill="#CFCDCE"/>
<path transform="translate(518,734)" d="m0 0h29v29h-29z" fill="#FBFAFA"/>
<path transform="translate(1031,614)" d="m0 0h29v29h-29z" fill="#1B171B"/>
<path transform="translate(1e3 584)" d="m0 0h29v29h-29z" fill="#1B171B"/>
<path transform="translate(669,131)" d="m0 0h28l1 1v28l-2 1-27-1z" fill="#1A161B"/>
<path transform="translate(96,101)" d="m0 0h29v29h-29z" fill="#19161B"/>
<path transform="translate(970,1398)" d="m0 0h29v29h-28l-1-1z" fill="#F7AC0A"/>
<path transform="translate(489,1006)" d="m0 0h28v29h-29v-28z" fill="#1A161B"/>
<path transform="translate(95,735)" d="m0 0h30v28h-30z" fill="#1D181B"/>
<path transform="translate(820,1338)" d="m0 0h30v22l-1 6-28 1-1-1z" fill="#19161B"/>
<path transform="translate(669,162)" d="m0 0h29v28l-1 1h-28z" fill="#995B32"/>
<path transform="translate(942,764)" d="m0 0h28v29h-29v-28z" fill="#C47458"/>
<path transform="translate(549,703)" d="m0 0 28 1v29h-28z" fill="#FCFCFC"/>
<path transform="translate(1e3 1218)" d="m0 0h29v28h-29z" fill="#19161B"/>
<path transform="translate(153,1216)" d="m0 0h1v29h-29v-28z" fill="#007368"/>
<path transform="translate(159,1186)" d="m0 0h25v29h-29v-28z" fill="#007368"/>
<path transform="translate(336,1336)" d="m0 0h30v1l-3 1 2 4v18l-1 6h-26l-1-1v-27z" fill="#007368"/>
<path transform="translate(276,582)" d="m0 0h151l1 1v29h29l1 1v60h60v1h-61v-60h-29v29l-1 1h-91v-31h2v30h88v-29h-23v-1h23v-29h-150z" fill="#B19F97"/>
<path transform="translate(125,1336)" d="m0 0h28l-1 2v27l-1 1h-24l-2-1v-20l1-7z" fill="#007469"/>
<path transform="translate(193,180)" d="m0 0 5 2 2 3 4-1h4l2 4-3 3 1 4 6 7h9l1 5-7 4-6-2-7-7-3-4-5 2-2 3 8 10 7-1 3 5-6 4h-6l-5-4-7-9-4-1-2-2v-5l-3-4 1-5h4l5 5 5-4-1-4-1-1z" fill="#C19986"/>
<path transform="translate(1e3 1187)" d="m0 0h1l1 29h28l1 1 1 29h28l1 1v151h-30v30h-1l-1-31 1-149h-29v120h-1v-121h30v-29h-29l-1-1zm31 61v149h29v-149z" fill="#896E61"/>
<path transform="translate(547,734)" d="m0 0h1v31h-30v30h-122v-30h-30v-12h1v10h31v30h118v-28h-117v-1l119-1h29z" fill="#D8A28F"/>
<path transform="translate(254,449)" d="m0 0h5l1 1v39l-1 1-13 1v-8l-8 1v-6h6l1-8 1-20z" fill="#DBDBDB"/>
<path transform="translate(426,1036)" d="m0 0h1l1 31v58l28 1v-30l1-60h1v90l-1 1h-29v59l28-1v-28h2v29h29v1h-29v29h29v1h-30v-30h-30l-1-1v-59h-28v-1h28z" fill="#747A89"/>
<path transform="translate(637,101)" d="m0 0h13l5 7 4-2v-3l-1-2h9v30l-28-1v-6l7-5 3-5v-7l-4-4h-8z" fill="#1B161B"/>
<path transform="translate(94,762)" d="m0 0 31 1 1 1v60l28-1 1-59 1-1h82v2h-82v60h-30v60h-1l-1-30v-31l1-59h-30l1 59v32h-1v-31h-30v-1h29v-59h-29v-1h29z" fill="#7D7F8A"/>
<path transform="translate(125,1396)" d="m0 0h28l1 1v10l-12 6-6-7-4 3 11 14 1 3h-5l-2-5-7 3-5 2z" fill="#1C171B"/>
<path transform="translate(64,765)" d="m0 0h1l1 90v30h28v30h-3l-1-2v-17l-23 1v7h-1l-2-19z" fill="#CE9581"/>
<path transform="translate(220,170)" d="m0 0h8l8 7v3l-5 5-5 6 4 1 4-4 2-4h5l-1 9-7 6-5 1-5-2-9-9-2-4v-7l5-6z" fill="#C19986"/>
<path transform="translate(876,492)" d="m0 0 5 1v60h-2v-29l-35 1-25-1v-2h13l-4-5 2-4 4-1 7 8v2l13-1-9-10-4-5 1-4 4-2 14 17 2 5h17l-1-17-8-9v-2z" fill="#A4A2A4"/>
<path transform="translate(329,80)" d="m0 0h2l-2 17 12 3 6 2-2 4-4 2-13-4 4 7 1 4-5 2-10-13-11-16-2-5 2-2h4v2l3 1 7 11 1 1 2-13z" fill="#C69984"/>
<path transform="translate(638,975)" d="m0 0h19l1 2 1-2h40v30h60v1h-61l-1-29h-24l-2-1 1 4-5 5-5 1-2-1-1 6-4 4h-7l1-4 5-1 1-3-11 1-3-4 1-5 2-2-6-1z" fill="#6E7588"/>
<path transform="translate(823,1113)" d="m0 0h6l6 4 11 12-2 4-4 1-11-12-1-1h-7l-1 5 11 12 2 5-4 3h-2l-7-8-9-10-8-9 2-4h4l6 5 4-5z" fill="#82838B"/>
<path transform="translate(136,221)" d="m0 0 4 1 4 6 7-5h8l5 4 10 15v3l-5 2-9-13-4-4-5 1-1 5 11 16-3 4-4-1-13-19-8-11 1-3z" fill="#BE9887"/>
<path transform="translate(637,84)" d="m0 0 2 3v13h10v1h-12v2l8-1 5 5v7l-4 6-8 5-4-1v-5l8-5 1-4-6 1-5 2-5-1-4-4-1-7 3-5 9-5h3z" fill="#85868C"/>
<path transform="translate(879,1127)" d="m0 0h1l1 149 1 2h-32l1 60h-31l1 28h28v-6h1v7h8v1h-8l1 60h-2v-60h-30v-31l1-1h29v-59l3-1h27z" fill="#714223"/>
<path transform="translate(125,312)" d="m0 0h1v301h18v1h-18v29h-1v-29h-29v-1h29l-1-150v-121z" fill="#797D8A"/>
<path transform="translate(759,492)" d="m0 0h109l2 2-9 1-1 2 8 10h7l3 4-1 3-5 2-6-1-7-7-4-5v-2l-5 1-2-5 1-3h-90z" fill="#7C808E"/>
<path transform="translate(719,908)" d="m0 0h6l5 5v7l-2 4 3 3-1 3h-3l-10-13v-2l-3 1h-108l-27-1-1 60h-1v-30l-3-1 2-1 1-28 1-1h136l2-4z" fill="#831C1F"/>
<path transform="translate(851,1097)" d="m0 0h9l6 7 4 2 7-1 2-1v22h-28l10-8 3-6-9-10z" fill="#1E181B"/>
<path transform="translate(519 1e3)" d="m0 0h179l1 1v28l-2 1v-28h-178v28h-1v-29z" fill="#CFCDCE"/>
<path transform="translate(123,1396)" d="m0 0h2v30l9-5h3l2 4 5 1-9-12-4-5 4-4 6 5 1 2 4-2 3-2h4l2 6v12h11v1h-11l-1 2v-2l-7 1h-23l-1-1z" fill="#85858C"/>
<path transform="translate(844,1091)" d="m0 0 4 2 1 3h10v1l-7 1 5 5 8 9-4 7-5 4-2 1h-8l-8-7-9-10 5-5 15 15 7-1-1-5-14-15 2-4z" fill="#82838C"/>
<path transform="translate(866,1096)" d="m0 0h13l1 3v28h-29v94l-1 27h-30l1 27-2 1v-29h30v-121h30l-1-21-4 2-6-1-8-7v-2z" fill="#B56E35"/>
<path transform="translate(177,205)" d="m0 0 4 1 10 14 4 5-1 5-7 7-2 1h-9l-8-9-7-10v-3h3v-2h3l11 16 5 1 3-2-1-5-9-12-1-5h2z" fill="#C59985"/>
<path transform="translate(414,1484)" d="m0 0h12l2 1v11h-39v-9l11-2z" fill="#DCDCDC"/>
<path transform="translate(252,752)" d="m0 0h6l3 3 1-2 3 3-1 3-3 3 75 1 1 1v150h-1v-149h-29v29h-1v-30l-2 1h-43l-3-1v-3l-5-1-2-4z" fill="#7C1212"/>
<path transform="translate(547,645)" d="m0 0h1v28h30l1 2v58h-1l-1-30v-28h-28l-1 59h-30v30h-120v-1h119l-1-29 1-1h30v-59h-5v-1h5z" fill="#706D7D"/>
<path transform="translate(881,552)" d="m0 0h60l59 1 1 1v29h29v1h-29v29h29v1h-30v-30h-60l-1-30h-58zm60 2v29h59v-29zm89 30h1v29h-1z" fill="#8E8B8D"/>
<path transform="translate(135,236)" d="m0 0 3 1v5l-8 5v2l14-2 4 2 2 4v6l-4 6-9 5h-3l-1-6 9-5 1-4-6 1-9 2-5-4-1-6 4-7 6-4z" fill="#86868C"/>
<path transform="translate(803,539)" d="m0 0h3l1 5-7 5-1 4 5-1 6-3 7 1 2 2 1 12-4 2-6 5-5 2-2-6 9-6 1-5-7 3-4 2-7-1-3-4v-7l4-6z" fill="#83848C"/>
<path transform="translate(449,268)" d="m0 0h3l2 3v3h2l2-6h3l1 7 5 3v2l2 1-1 1h-6l1 5h-4l-4-6-2-1v6l6 2 2 2v5l-4 4h-6l-2-4v-3h-2l-5-7-1-4 7-6h2l-2-6z" fill="#989394"/>
<path transform="translate(253,139)" d="m0 0 3 1 1 5-6 4-1 4 5-1 4-2h7l5 5v8l-6 7-6 3-3-1-1-5 7-4 2-3v-3l-5 1-7 3-5-1-5-5 1-7 6-7z" fill="#C69A86"/>
<path transform="translate(805,1130)" d="m0 0h4l1 5-8 6v3l6-2 4-2h7l3 3v8l-4 6-9 6h-3v-6l8-5 2-5-5 1-8 4-5-1-3-3-1-6 4-7z" fill="#84858B"/>
<path transform="translate(343,367)" d="m0 0 6 1 7 8-5 5-4 2-5-5 1-4-4 1-1 5 4 5v3l-5 2-5 6-6-1-2-4v-3h-2l1-7 5-1 5 4 2 3v-4l-3-4 1-4z" fill="#F7E1D6"/>
<path transform="translate(214,1307)" d="m0 0h1l1 28h29l6-7 6-3h2l1 4-8 5v1h22l-2-5-4-5v-2l-4 1-3-4v-4l-2-5 3-3 5 6 4-2 3-1 2-4v30h-61l-1-1z" fill="#AEB9B9"/>
<path transform="translate(304,97)" d="m0 0 6 1 3 3-3 4h-6l-2 1 1 7 6 7h5l2-6 6-1 1 1-1 9-5 4-2 1h-7l-8-7-6-10v-6l5-6z" fill="#C29A87"/>
<path transform="translate(255,122)" d="m0 0 5 3 3 3 4-3 3 1 2 4-3 3 1 4 7 7h7l4 5-7 4-7-2-11-11-5-1-2-4v-3l-3-3 1-5z" fill="#C19885"/>
<path transform="translate(940,764)" d="m0 0h1v29l28-1 1-28h28v1h-27v30h-30v29h89v1h-90v-30h-30l-1-2v-10h1l2 10h27z" fill="#645A62"/>
<path transform="translate(517,975)" d="m0 0h1l1 31-1 29-1 1h-29v119h-1l-1-64v-54l-28-1v-1h29v-29l1-1h29zm-28 31-1 1v28h29v-29z" fill="#80828B"/>
<path transform="translate(216,704)" d="m0 0h60v24l4 1 7 9-1 2h-3l-2-5h-2l-3-3-1 4 5 6v3l-4-1-7-8-53-1v-2l55-1 3-1v-3-22l-58-1z" fill="#B0AEAF"/>
<path transform="translate(155,675)" d="m0 0h1v58h59l1 2h-58l-2-1v30l-1 57h-1v-56h-28v-1l28-1 1-29h-29v-1h29l-1-40v-17z" fill="#742519"/>
<path transform="translate(396,975)" d="m0 0 2 1-1 59h29v1h-28v90h-2v-90h-29v-1h29z" fill="#757A89"/>
<path transform="translate(124,1007)" d="m0 0h1v28l118-1 3-2v4l-2 1h-119l-1-1z" fill="#B1AFB1"/>
<path transform="translate(94,762)" d="m0 0 31 1 1 1v60h-1v-59h-30l1 59v32h-1v-31h-30v-1h29v-59h-29v-1h29z" fill="#616C86"/>
<path transform="translate(39,915)" d="m0 0h25v23l-10-1-1-1-2-19-12-1z" fill="#DADADA"/>
<path transform="translate(236,153)" d="m0 0 5 2v4l-2 2 1 5 5 6 5 5 2 4-3 3h-3l-7-8-7-7-1-8 3-5z" fill="#C49783"/>
<path transform="translate(663,975)" d="m0 0h36v30h60v1h-61l-1-29h-24l-2-1 1 4-5 5-5 1-2-2v-5z" fill="#475273"/>
<path transform="translate(939,1128)" d="m0 0h1v28h30l1 1v29h29v1h-29v29l-2-4v-23l-1-1-28-1-1-1zm1 29v27l1 2h28l1-1v-28z" fill="#814E4D"/>
<path transform="translate(728,493)" d="m0 0h1v60h-60l-1-1v-29l1-1h29v2h-29l1 26 1 1 57 1-1-2v-56z" fill="#B3826A"/>
<path transform="translate(820,1336)" d="m0 0h29v2h-29l1 28h28v-6h1v7h8v1h-8l1 60h-2v-60h-30v-31z" fill="#66504B"/>
<path transform="translate(742,890)" d="m0 0 4 1 4 5v3l4 2v3l4 2v3l-3 1-3 3-6-1-3-3-3-5v-5l4-2v-3h-2z" fill="#DD937A"/>
<path transform="translate(804,523)" d="m0 0 4 2 3 3v2l5-5 3-1v24l-5-5-13-14 1-4z" fill="#7E7F86"/>
<path transform="translate(427,1127)" d="m0 0h1v59l28-1v-28h2v29h29v1h-29v29h29v1h-30v-30h-30z" fill="#727889"/>
<path transform="translate(475,257)" d="m0 0 3 1 4 11v5l-5-1h-1v5l-6-1-9-9 3-3 5 4-1-8 4 1 1 2 3 1v-3h-2z" fill="#C5BDBB"/>
<path transform="translate(335,1155)" d="m0 0h1v60l-2-2-1-26-25 1v27h-3v-30h30z" fill="#136664"/>
<path transform="translate(881,552)" d="m0 0h60l59 1v1h-59v28h-1l-1-28h-58z" fill="#576484"/>
<path transform="translate(276,1245)" d="m0 0h30v62h-30l3-2 5-3h4l2 3h14l-4-12 4-8v-38l-28-1z" fill="#D0CECF"/>
<path transform="translate(719,908)" d="m0 0h6l5 5v7l-2 4 3 3-1 3h-3l-10-13v-2h-3l1-4z" fill="#B5A9A9"/>
<path transform="translate(809,846)" d="m0 0 2 1 4 10-1 5-5-1v2l-1 4h-4l-10-7 2-3 5 2 2 1-2-4 1-4h3l3 2-1-6z" fill="#A9AAB0"/>
<path transform="translate(208,1395)" d="m0 0h68l27 1v1h-26l1 28h-2v-28h-62v28h-32v-1l7-1 24 1v-27l-5 1z" fill="#D8D7D8"/>
<path transform="translate(759,522)" d="m0 0h30v30h-22v-1h21l-1-9v-17h-27v25l3 1-4 1z" fill="#AF6749"/>
<path transform="translate(360,352)" d="m0 0 4 1 4 9v5l-7-1 2 5-4 1-9-6-1-4h4v2h2l-1-6 3-1h3z" fill="#EFDED5"/>
<path transform="translate(252,752)" d="m0 0h6l3 3 1-2 3 3-1 3-3 3 45 1-2 2h-43l-3-1v-3l-5-1-2-4z" fill="#7A5C51"/>
<path transform="translate(866,1096)" d="m0 0h13l1 3v27h-1l-1-21-4 2-6-1-8-7v-2z" fill="#72737C"/>
<path transform="translate(387,320)" d="m0 0h6l4 4v6l-2 2 1 4v4h-3l-7-8-4-4 1-4z" fill="#F7D8C9"/>
<path transform="translate(781,869)" d="m0 0h3l1 4v7h7v7l-2-3h-6v5h5l-1 2h-5l-5-8-4-3v-5z" fill="#CB967F"/>
<path transform="translate(728,433)" d="m0 0h1v29h30v2h-90v28h-1v-29l1-1h59z" fill="#89858B"/>
<path transform="translate(275,1397)" d="m0 0h1v29h59v-29h1v29l30-1v2h-30v29h-1l-1-28-59-1z" fill="#80828B"/>
<path transform="translate(970,1216)" d="m0 0h30l1 1v29h29v1l-60 2 1-3 28-1 1-27h-29z" fill="#7F1514"/>
<path transform="translate(484,251)" d="m0 0 4 1 5 5 2 3v4l-3 1-2 3h-5l-3-3v-5h-3l1-6z" fill="#CAC8C8"/>
<path transform="translate(831,512)" d="m0 0h3l7 8v2h20l18 1v1l-35 1-25-1v-2h13l-4-5 2-4z" fill="#C4C3C4"/>
<path transform="translate(214,1307)" d="m0 0h1l1 28h29l6-7 6-3h2l1 4-8 5v1h22l1-10h1v12h-61l-1-1z" fill="#CFCECE"/>
<path transform="translate(637,84)" d="m0 0 2 3v13h10v1h-12l1 3-4 2h-5l-1-4 1-2-6 1 2-5 9-5h3z" fill="#81838B"/>
<path transform="translate(704,928)" d="m0 0h2l5 5 5 6-1 3h-3v2l16 1v1l-22 1-5-1-2 4-6-4v-1l10-1-5-7v-2h3l1 4h3l1 2 3 1-1-5-2-4-3-1z" fill="#C5C4C5"/>
<path transform="translate(312,699)" d="m0 0h3l6 14-1 2-4-1-4-3 2 3v5l-4-1-10-8v-3l4 1 4 2-2-3v-4l4 1 1 3 4 1-3-6z" fill="#B58C7D"/>
<path transform="translate(844,500)" d="m0 0 3 1 11 14 4 5 1 3-8-1-10-11-4-5 1-4z" fill="#85858C"/>
<path transform="translate(861,494)" d="m0 0h9l7 9 2 2v6h-2l-2-3h-7l-8-9-1-3z" fill="#1C171B"/>
<path transform="translate(238,763)" d="m0 0h2v3h-6l2 3v5l-3 5 3 3v2l-4-1-10-11 2-6v-1h14z" fill="#F6E1D6"/>
<path transform="translate(449,268)" d="m0 0h3l2 3v3h2l2-6h3l1 7 5 3v2l2 1-1 1h-6l1 5h-4l-4-6-4-7-3-3z" fill="#ABA3A3"/>
<path transform="translate(65,905)" d="m0 0h7l1 1v5l-6 2-1 5-1 57h-1v-60h-3l-1-5 2-4z" fill="#B6A6A0"/>
<path transform="translate(216,704)" d="m0 0h60v24l4 1 7 9-1 2h-3l-2-5h-2l-1-2h-4l-1-4 1-1v-22l-58-1z" fill="#E2D9D5"/>
<path transform="translate(325,380)" d="m0 0 5 1 5 6 2 1-2 5-3 3-6-1-2-4v-3h-2l1-7z" fill="#F6E0D5"/>
<path transform="translate(401,314)" d="m0 0h5l7 8v3h-3l-2 4h-5l-2-3v-4h-3v-6z" fill="#EDCFC1"/>
<path transform="translate(321,693)" d="m0 0 5 1 7 9v2l-5 4h-6l-2-4 1-4 3-4h-3l-1 4h-3v-5z" fill="#787A84"/>
<path transform="translate(64,432)" d="m0 0h1v30h28v1h-28v60h-1v-60l-28 1-1-2h29z" fill="#8C8A8D"/>
<path transform="translate(792,860)" d="m0 0h2l1 7 8 3-2 4-7-1v5l-6-4-1-4-3-1-3-4 1-3 4 2 3 3 2-6z" fill="#AFA5A7"/>
<path transform="translate(336,703)" d="m0 0h30l1 1v29l30-1 1 1v30h-1l-1-28-30-1v-29h-27z" fill="#707788"/>
<path transform="translate(657,100)" d="m0 0h11l1 1v29h28v1h-29l-1-3v-27l-8 1 2 3-4 4-3-1-4-5v-2z" fill="#7C7F8A"/>
<path transform="translate(287,710)" d="m0 0 4 1 4 5 1-6h3l2 7 7 4-1 3-6-2-2-1 3 4-1 3h-3l-9-12v-2h-2l-1-3z" fill="#C18469"/>
<path transform="translate(498,241)" d="m0 0 5 2 2 3v3h2l-1 4-7-5-3-1 3 7 2 2-1 4-4-1-5-9-2-1 1-3 3-1 2-3z" fill="#BCA9A2"/>
<path transform="translate(296,120)" d="m0 0 3 1v3l3 1 2 4v6l-5 5h-4l-2-5 3-3-1-4-2-5z" fill="#C09785"/>
<path transform="translate(287,717)" d="m0 0 3 1 1 9-1 2 7-1v2h2v5l-2 1-1-3h-5l1 3 4 1-1 2-5-1-1-4-3-1-5-5 1-5 1 4h5v-4l-4-1z" fill="#B6988B"/>
<path transform="translate(310,384)" d="m0 0h6l1 3-5 1v3h9l4 3v6l-3 3h-6l-1-3 6-1-1-3-10-1-2-1v-8z" fill="#F0DFD6"/>
<path transform="translate(280,114)" d="m0 0 5 5-4 4 1 4 2 2v4l-4 2-7-8v-6l4-5z" fill="#C29986"/>
<path transform="translate(164,1403)" d="m0 0 2 1v2l3 1 3 4-1 4 3-1 2 3h7l3-3 1-4-2-1 5-1 1 4-1 4-4 2v3l-9 1-6-4-10-13z" fill="#FAFAFA"/>
<path transform="translate(264,736)" d="m0 0 4 2 7 8v3h-3l-1 4-6 1-8-8 1-4 4 2 6 5 1-3-6-7z" fill="#878B98"/>
<path transform="translate(249,743)" d="m0 0 5 1 7 8 2 5-4-2-1-2h-6l1 6 5 2v3l3 1h-11l-1-2 4 1v-2l-4-2-2-3 1-6 3-1-2-4z" fill="#808491"/>
<path transform="translate(733,904)" d="m0 0h4v2l3 1v2l4 2 2 2v3l-5-1-1-2h-2l-1 4h5v2l-6 1-3-5-3-3v-6z" fill="#DCA793"/>
<path transform="translate(757,886)" d="m0 0 3 1 4 6v2l3 1 1 5h-3l-2 4h-5l-2-2v-3l-4-2-3-6 4-1 1 4 4 2 1 4h4l-2-6-5-5z" fill="#D7957C"/>
<path transform="translate(334,684)" d="m0 0 5 2 6 8-1 3-4-2-4-5-3-1 3 7 2 3v3l-4-1-7-9 1-4h3l1-3z" fill="#828794"/>
<path transform="translate(424,293)" d="m0 0 4 1 3 4v2l4 2 1 5-5 3h-6l-3-4v-2l-4-2v-4l4 2 4 4v2l3-1-1-4-4-5z" fill="#C2C2C3"/>
<path transform="translate(646,977)" d="m0 0h5v2l-6 2v2l11-1 3 4v5l-4 4h-7l1-4 5-1 1-3-11 1-1-1v-7z" fill="#9EA0AA"/>
<path transform="translate(410,298)" d="m0 0h3l3 4v2l4 2 4 6-4-1-1 4-3 1-6-5-2 1v-5l4-2-2-3z" fill="#C1C0C3"/>
<path transform="translate(202,799)" d="m0 0 2 2 3 8-4 1h-3v5l-4-1-4-3v-2l-4-2v-2l6 2-1-6 2-1 7 4-1-3z" fill="#F3E0D6"/>
<path transform="translate(370,343)" d="m0 0h4l8 10-7 7-5-1-2-4-3-1-1-5 4 1 3 3v2l4-1-1-4-4-4z" fill="#FBE4D9"/>
<path transform="translate(434,285)" d="m0 0h5l4 4v3h2l2 6h-3l-5-7v-2l-3 1-1 5 3 1v3l3 1v3l-4-1-2-2v-3l-3-1-3-4v-3h4z" fill="#B4B2B5"/>
<path transform="translate(625,100)" d="m0 0h4v5l10-1-1 6-6 3-5-1-4-4-1-7z" fill="#CA9D88"/>
<path transform="translate(403,605)" d="m0 0h7v5l-7 2v1l-5 1h-59v-1l58-1 4-6z" fill="#667087"/>
<path transform="translate(304,988)" d="m0 0h2v17h-6l-3-4 1-8z" fill="#7D7D82"/>
<path transform="translate(135,236)" d="m0 0 3 1v5l-8 5-2 4-5 2-1-5 4-7 6-4z" fill="#C19885"/>
<path transform="translate(768,879)" d="m0 0 4 1 7 8v3l-4-1-5-6-3-1 2 6 4 6v2h-3l-9-11 1-3h3v-2z" fill="#D5A18C"/>
<path transform="translate(454,287)" d="m0 0 5 1 2 2v5l-4 4h-6l-3-9z" fill="#C1C0C2"/>
<path transform="translate(549,674)" d="m0 0 28 1v1h-27v27l-1 30h-1v-58z" fill="#D5D3D4"/>
<path transform="translate(426,584)" d="m0 0h1l1 28 28 1v1h-28v29h-1v-29h-24v-1h23z" fill="#797D8A"/>
<path transform="translate(581,764)" d="m0 0 5 1v10l-4 3-8-1v-6l6-1v-5z" fill="#D58C72"/>
<path transform="translate(568,456)" d="m0 0h8l1 5-6 2-1 6h-6v-10z" fill="#F3DACE"/>
<path transform="translate(579,468)" d="m0 0h5v11l-4 3-8-1v-6h6v-6z" fill="#F8DCCF"/>
<path transform="translate(569,752)" d="m0 0h8l1 1v5l-6 1-1 6h-5l-1-9z" fill="#CF8165"/>
<path transform="translate(218,794)" d="m0 0h88v1l-86 1-1 4-3 1v-6z" fill="#8D8C8F"/>
<path transform="translate(125,583)" d="m0 0h1v30h18v1h-18v29h-1v-29h-29v-1h29z" fill="#8D8A8B"/>
<path transform="translate(155,1365)" d="m0 0h30v29l-5-5 1-3v-1l-3-4 1-5 3 2v2h2v-14h-29z" fill="#CCCACB"/>
<path transform="translate(240,458)" d="m0 0h2v6l-6 1v6l-2 2h-4v-9l5-5z" fill="#80828B"/>
<path transform="translate(463,265)" d="m0 0 6 4 1-3h3l3 5v7l-6-1-9-9z" fill="#B2ADAF"/>
<path transform="translate(172,221)" d="m0 0h8l5 2 2 3-1 4-3 2-5-1-6-8z" fill="#744424"/>
<path transform="translate(76,916)" d="m0 0h6v9l-4 4-8 1v-6l6-1z" fill="#82848C"/>
<path transform="translate(912,1362)" d="m0 0h5v9l-5 4h-7l-1-5 1-1h6z" fill="#82848C"/>
<path transform="translate(909,763)" d="m0 0 2 1v12l4 1v-7h5v10l-3 3h-7v-5l-1-1z" fill="#89898E"/>
<path transform="translate(123,1396)" d="m0 0h2v30h28v1l-6 1h-23l-1-1z" fill="#B9B7B9"/>
<path transform="translate(332,969)" d="m0 0h2v5l2 1v2h-25l-2-5 2-2 4 1 2 3 11 1 1-4z" fill="#D6D6D6"/>
<path transform="translate(734,1198)" d="m0 0h8v5l-6 1-1 6h-6l1-9z" fill="#C0624A"/>
<path transform="translate(900,1350)" d="m0 0h10v5l-7 2-1 5-5-1v-7z" fill="#C5937C"/>
<path transform="translate(413,912)" d="m0 0h5l1 8-5 5h-7l-1-4 1-1h6z" fill="#C3634C"/>
<path transform="translate(728,1097)" d="m0 0h1v29h30v1h-30v29h-1l-1-29-1-2h2z" fill="#727889"/>
<path transform="translate(706,922)" d="m0 0 8 1 3 9h6l-1 4-7-1-3-4v-2h-5z" fill="#ACADB2"/>
<path transform="translate(426,1125)" d="m0 0h2l-1 61h-1v-59h-28v-1z" fill="#8E8C8E"/>
<path transform="translate(155,1414)" d="m0 0h3l2 5h2l4 4-1 2h6v1h-16z" fill="#D3D1D2"/>
<path transform="translate(745,1211)" d="m0 0h5v8l-3 4h-9l-1-3 1-2 6-1z" fill="#C3634C"/>
<path transform="translate(663,975)" d="m0 0h6l3 3-1 3-5 5-5-1-1-1v-5z" fill="#8F8F96"/>
<path transform="translate(402,901)" d="m0 0h7l-1 5-5 1-1 7h-5v-9z" fill="#C3634C"/>
<path transform="translate(336,704)" d="m0 0h3l-1 29h27v1h-28l-1-1z" fill="#CAB0A4"/>
<path transform="translate(748,620)" d="m0 0 4 1v8l-3 3h-9v-5h7v-6z" fill="#C3634C"/>
<path transform="translate(736,607)" d="m0 0h7l1 5-6 1-1 6h-5v-9z" fill="#C3634C"/>
<path transform="translate(373,336)" d="m0 0h8l1 3-1 3 8 2-1 4h-5l-3-2v-2l-6-2z" fill="#F7DDD1"/>
<path transform="translate(571,158)" d="m0 0 6 1 1 4-6 1-1 7h-5v-9l2-3z" fill="#968885"/>
<path transform="translate(64,312)" d="m0 0h8v4l-6 2v6l-5 1-1-1v-7z" fill="#88888D"/>
<path transform="translate(734,310)" d="m0 0h7l1 5-6 1v6h-5l-1-1v-7z" fill="#3C5280"/>
<path transform="translate(582,171)" d="m0 0 5 1v8l-3 3h-8l-1-5h7z" fill="#AD7E6E"/>
<path transform="translate(580,1357)" d="m0 0h4v8l-2 3-3 1h-7l1-5 5-1z" fill="#FDFDFD"/>
<path transform="translate(571,1344)" d="m0 0 6 2-1 3-6 1-1 7h-5l2-10z" fill="#FDFDFD"/>
<path transform="translate(411,1208)" d="m0 0h4v8l-5 5h-7l1-5h6v-6z" fill="#FDFDFD"/>
<path transform="translate(64,1200)" d="m0 0h7l-1 5h-6v6l-4 2-2-2 1-6z" fill="#FDFDFD"/>
<path transform="translate(831,512)" d="m0 0h3l7 8v2l-7 1h-9v-1h7l-4-5 2-4z" fill="#87878C"/>
<path transform="translate(746,323)" d="m0 0 5 1v9l-2 2h-9l-1-4 5-1 2-2z" fill="#3C5280"/>
<path transform="translate(77,323)" d="m0 0h4v9l-4 4h-7v-4l6-1v-7z" fill="#8E8C8E"/>
<path transform="translate(418,20)" d="m0 0 4 1v6l-3 5-9 1v-5l6-1 1-6z" fill="#FDFDFD"/>
<path transform="translate(75,1211)" d="m0 0 3 1v7l-5 5h-7v-4l6-2 1-6z" fill="#FDFDFD"/>
<path transform="translate(1083,325)" d="m0 0 2 1v9l-4 3h-6l-1-4 1-1h5v-7z" fill="#FDFDFD"/>
<path transform="translate(403,1197)" d="m0 0h5l-1 5-6 2-1 6-4-1-1-2 3-8z" fill="#FDFDFD"/>
<path transform="translate(782,878)" d="m0 0v3l-1 2h2v-2l2-1h7v7l-2-3h-6v5h5l-1 2h-5l-5-8 1-3z" fill="#D6B7AB"/>
<path transform="translate(1069,314)" d="m0 0h7v4l-5 2-1 6h-5v-7l2-4z" fill="#FDFDFD"/>
<path transform="translate(903,758)" d="m0 0h7l1 5h-5l-1 6h-5v-9z" fill="#F7F7F7"/>
<path transform="translate(1071,611)" d="m0 0h7v5l-6 1-1 6h-4v-9z" fill="#FDFDFD"/>
<path transform="translate(916,176)" d="m0 0 4 1v9l-5 3h-5l-1-5 6-1z" fill="#FDFDFD"/>
<path transform="translate(407,9)" d="m0 0h5l1 4-7 2 1 4-1 3h-4v-9z" fill="#FDFDFD"/>
<path transform="translate(300,707)" d="m0 0 4 1 4 3 3-3 3 6v5l-4-1-10-8z" fill="#C48970"/>
<path transform="translate(903,164)" d="m0 0h7l1 4-1 1h-5v7h-4l-1-9z" fill="#FDFDFD"/>
<path transform="translate(1073,15)" d="m0 0h7l1 4-6 1v6l-4 1-1-1v-7z" fill="#FDFDFD"/>
<path transform="translate(246,762)" d="m0 0 5 3 1 4h-2l-1 3-6 1-1-1v-5l-1-2z" fill="#F6DCD0"/>
<path transform="translate(449,268)" d="m0 0h3l2 3v3h2l2-5h2v7l3 3-5 1-5-3-5-6z" fill="#CAC2C0"/>
<path transform="translate(305,1295)" d="m0 0h1v12h-30l3-2 5-3h4l2 3h14z" fill="#D3D2D2"/>
<path transform="translate(419,309)" d="m0 0 6 3v3l-3 1-2 3h-6l-6-7 2-2 4 3v2l5-1z" fill="#F3DCD1"/>
<path transform="translate(484,251)" d="m0 0 4 1 3 2-1 2-3-1-1 4-2 2-2 4v-5h-3l1-6z" fill="#BCB6B6"/>
<path transform="translate(155,1429)" d="m0 0 5 5 2 5-2 2-4-1-1 16h-1v-19z" fill="#83848C"/>
<path transform="translate(719,908)" d="m0 0h6l1 2h-5l4 2 1 5-3 2-1-3-8-1 1-4z" fill="#DA937A"/>
<path transform="translate(1082,623)" d="m0 0h4v7l-3 4-8 1 1-5h5z" fill="#FDFDFD"/>
<path transform="translate(173,1426)" d="m0 0h41v1h-40l-1 4-4 1-3-5z" fill="#8E8C8E"/>
<path transform="translate(876,492)" d="m0 0h3l1 5-1 8-6-5-3-4v-2z" fill="#807F84"/>
<path transform="translate(305,1367)" d="m0 0h3v28h-3z" fill="#076C62"/>
<path transform="translate(1085,27)" d="m0 0h4l1 6-4 5-6 1-2-1v-3l6-2z" fill="#FDFDFD"/>
<path transform="translate(704,928)" d="m0 0h2l5 5 5 6-1 3-4-1-2 1-1-5-2-4-3-1z" fill="#A3A4AC"/>
<path transform="translate(155,1409)" d="m0 0 5 2v2l2 1 5 6v3l4 2h-6l-1-3-2-1v-2h-2l-2-5h-3z" fill="#FAFAFA"/>
<path transform="translate(245,1332)" d="m0 0 1 3-1 1h-29l1-3h26z" fill="#066D63"/>
<path transform="translate(396,732)" d="m0 0 2 1v30h-1l-1-28-30-1v-1z" fill="#646E86"/>
<path transform="translate(245,160)" d="m0 0h1v12l-3-1-5-6v-4z" fill="#744424"/>
<path transform="translate(306,975)" d="m0 0h5v2h-3v28h-2z" fill="#D4D2D3"/>
<path transform="translate(287,717)" d="m0 0 3 1 1 9-3 2-3-1v2l-4-2 1-5 1 4h5v-4l-4-1z" fill="#BF8971"/>
<path transform="translate(320,391)" d="m0 0 5 3v6l-3 3h-6l-1-3 6-1-2-5-1-2z" fill="#FAE6DC"/>
<path transform="translate(272,731)" d="m0 0 1 2h3v4l4 5v3l-4-1-7-8 2-1z" fill="#9C9EA5"/>
<path transform="translate(742,899)" d="m0 0h2l-1 4h2l2 5h6l-1 5-6-1-3-3-2-4v-5z" fill="#EAAA92"/>
<path transform="translate(792,882)" d="m0 0h1v6l-4 4h-6v-1l5-1-4-1v-5l6-1 1 1z" fill="#A7614F"/>
<path transform="translate(757,886)" d="m0 0 3 1 4 6v2l3 1 1 4-4-1v3l-2-1v-5l-4-5-2-1z" fill="#DAAC9B"/>
<path transform="translate(636,97)" d="m0 0 2 3v4l-4 2h-5l-1-4h2v-2z" fill="#824E30"/>
<path transform="translate(194,1399)" d="m0 0h12l1 3-4 3-7-1-3-4z" fill="#F9F9F9"/>
<path transform="translate(697,934)" d="m0 0 3 1h-2l6 10h-8l-2-5v-3h3z" fill="#686871"/>
<path transform="translate(245,470)" d="m0 0h1v13l-8 1v-6h6z" fill="#83848C"/>
<path transform="translate(223,176)" d="m0 0 5 2-2 4-5 4-2-2v-5z" fill="#774626"/>
<path transform="translate(652,976)" d="m0 0 4 1v2h3v4h-7l-6 1 1-4h5z" fill="#241B1B"/>
<path transform="translate(768,879)" d="m0 0 4 1 7 8v3l-4-1-5-6-3-1z" fill="#DCA893"/>
<path transform="translate(784,869)" d="m0 0 3 1 2 4 4 3 2-2v4l-4-1-1 1v1h-5v-7l-2-1z" fill="#7D3739"/>
<path transform="translate(328,700)" d="m0 0 5 3v2l-5 4h-6l-1-5 2-1v2l4-1z" fill="#BA9081"/>
<path transform="translate(178,1423)" d="m0 0h4v2h32v1l-43 1 1-2h6z" fill="#CFCDCE"/>
<path transform="translate(293,732)" d="m0 0 4 1 1 2 2-2-1 5-3 2h-6l-2-2 1-4 2 4 4-1-4-1v-3z" fill="#5F585F"/>
<path transform="translate(276,728)" d="m0 0 4 1 7 9-1 2h-3l-2-5h-2l-3-3z" fill="#AC9086"/>
<path transform="translate(817,848)" d="m0 0h2v6h2l-1 28h-1v-27l-3-1v-5z" fill="#C6C7CA"/>
<path transform="translate(152,1414)" d="m0 0 2 1v10l-4-2-2-3 1-4z" fill="#291D1B"/>
<path transform="translate(809,846)" d="m0 0 2 1 3 7-1 3v-2h-2l1 3-5-2-2-3 3 1-1-6z" fill="#90929A"/>
<path transform="translate(349,362)" d="m0 0h4v2l3-1 1 4 2 2 4 2-4 1-9-6z" fill="#FAE4D8"/>
<path transform="translate(430,290)" d="m0 0h2l3 3v2l3 1v3l3 1v3l-4-1-2-2v-3l-3-1-2-3z" fill="#BFBEC0"/>
<path transform="translate(487,259)" d="m0 0h4l3 3 1-2v4l-3 1-2 3h-5l4-1v-3h-3z" fill="#948F93"/>
<path transform="translate(495,247)" d="m0 0 2 4 4 5-1 4-4-1-4-7h3z" fill="#B5AFAD"/>
<path transform="translate(242,758)" d="m0 0 5 2 2 3-4 1-5 1v-2h-2l2-4z" fill="#818086"/>
<path transform="translate(454,291)" d="m0 0h4v4l2 1-3 3h-6l3-1-2-3v-3z" fill="#727075"/>
<path transform="translate(412,308)" d="m0 0 6 1 2 4-2 3-4-1-2-3z" fill="#7C5F57"/>
<path transform="translate(424,293)" d="m0 0 4 1 3 4v2l3 1-1 4-5-4-4-5z" fill="#C6C5C6"/>
<path transform="translate(449,276)" d="m0 0 2 4v3h-5l-1 3 2 1h-3l-2-2 1-4z" fill="#C2C1C4"/>
<path transform="translate(140,247)" d="m0 0 6 1 2 1v3l-5-1-9 1 1-3z" fill="#BF9B89"/>
<path transform="translate(812,1156)" d="m0 0 4 2-5 4-5 1v-6z" fill="#D69076"/>
<path transform="translate(651,975)" d="m0 0h6l1 2 1-2h4l-2 4-1 10-4-5 3-1v-4h-3l-1-2z" fill="#62697F"/>
<path transform="translate(463,265)" d="m0 0 6 4 4 7-4-2-5-3-3-4z" fill="#C7BDB9"/>
<path transform="translate(939,1184)" d="m0 0h2v2l29-1 1 5-3-2-28-1z" fill="#7F0F11"/>
<path transform="translate(252,752)" d="m0 0 5 1 2 5-3 2-5-4z" fill="#241B1B"/>
<path transform="translate(246,470)" d="m0 0 4 1v8l-4 3z" fill="#FDFDFD"/>
<path transform="translate(63,313)" d="m0 0h1l1 12-5-1v-7z" fill="#3C5280"/>
<path transform="translate(475,257)" d="m0 0 3 1 2 5-1 3-2 3-3-4h2v-3h-2z" fill="#ACA7A8"/>
<path transform="translate(227,768)" d="m0 0h5l1 3-2 5-4-2-1-5z" fill="#F7C2AC"/>
<path transform="translate(430,302)" d="m0 0 3 2 2-2 1 5-5 3h-6l4-1v-2l-2-1 2-1z" fill="#A5A6AD"/>
<path transform="translate(442,285)" d="m0 0 5 5v2h2l1 5-3 1-2-6h-2l-2-5z" fill="#383640"/>
<path transform="translate(452,278)" d="m0 0 6 5 1 4 3 1-3 1-7-2z" fill="#342622"/>
<path transform="translate(450,273)" d="m0 0 4 4-1 3v6h-1l-3-9-6 5-2-1 7-6h2z" fill="#86868F"/>
<path transform="translate(328,690)" d="m0 0 3 1 1 4 4 1 2 3v3l-4-1-4-5z" fill="#999CA5"/>
<path transform="translate(134,1421)" d="m0 0h3l2 5h-12l4-4z" fill="#7C7F8B"/>
<path transform="translate(310,384)" d="m0 0h6l1 3h-6l-1 6h-2v-7z" fill="#FAE6DB"/>
<path transform="translate(411,302)" d="m0 0 4 2 1 4h-4v3l-4 1v-5l4-2z" fill="#B4B3B7"/>
<path transform="translate(496,243)" d="m0 0h5l4 5 2 1-1 4-5-4-2-3-3-1z" fill="#E6D7D0"/>
<path transform="translate(738,912)" d="m0 0 3 1 1 2 5 1-1 2h-3v2l-5 1 4-2v-2l-3 1-2-1z" fill="#7D6464"/>
<path transform="translate(568,756)" d="m0 0h2l1 9h-5v-8z" fill="#DB9A81"/>
<path transform="translate(300,707)" d="m0 0 4 1 6 4-2 3-5-2-3-3z" fill="#BE7D60"/>
<path transform="translate(454,278)" d="m0 0 4 1 5 5v3h-4l-4-6z" fill="#B1B1B6"/>
<path transform="translate(571,158)" d="m0 0 6 1 1 4h-9v-4z" fill="#B87963"/>
<path transform="translate(246,762)" d="m0 0 5 3 1 4h-5-3v-5z" fill="#DCD4D1"/>
<path transform="translate(261,156)" d="m0 0 4 1-1 4h-9v-2z" fill="#734324"/>
<path transform="translate(360,1337)" d="m0 0h6v23h-1l-1-18-2-3z" fill="#0C675E"/>
<path transform="translate(646,977)" d="m0 0h5v2l-6 2 1 3 3 1v2h-6v-7z" fill="#CDCBCC"/>
<path transform="translate(777,872)" d="m0 0 4 2 1 3-2 2-4-1-2 2v-5z" fill="#AB5E4D"/>
<path transform="translate(449,268)" d="m0 0h3l4 8v2l-3-1-5-6z" fill="#CDC2BD"/>
<path transform="translate(846,1075)" d="m0 0h2l1 2v8l-4-2-1-3z" fill="#7A7E8A"/>
<path transform="translate(785,880)" d="m0 0h7v7l-2-3h-8l1-3z" fill="#C9B6B0"/>
<path transform="translate(403,322)" d="m0 0 1 3 6-1-1 4-1 1h-5l-1-1v-5z" fill="#F9DDCF"/>
<path transform="translate(401,314)" d="m0 0 2 1-1 2 3 2-3 3h-4v-6z" fill="#EAC3B1"/>
<path transform="translate(440,287)" d="m0 0 3 2v3h2l2 6h-3l-4-5z" fill="#C2C1C2"/>
<path transform="translate(693,945)" d="m0 0h16v2l-8-1-2 4-6-4z" fill="#DEDEDE"/>
<path transform="translate(283,720)" d="m0 0 2 1 3 2v4h-5l-1-3-2 3 1-5z" fill="#9D4732"/>
<path transform="translate(669,550)" d="m0 0 2 1 27 1v1h-29z" fill="#938E8E"/>
<path transform="translate(176,1398)" d="m0 0h6l3 5-3 3-4-5v-2z" fill="#FAFAFA"/>
<path transform="translate(303,1287)" d="m0 0h1v13l-3-3-1-4z" fill="#B2B0B2"/>
<path transform="translate(745,901)" d="m0 0 4 1 3 5-4 1-4-5z" fill="#CF0017"/>
<path transform="translate(397,312)" d="m0 0h11l4 5-3 1-3-3-9-2z" fill="#CDA08B"/>
<path transform="translate(483,255)" d="m0 0h4l-1 4-2 2-2 4v-5h-3l1-4v3h2z" fill="#8D7D76"/>
<path transform="translate(635,118)" d="m0 0h4v6l-4 1-1-1v-5z" fill="#C7A08F"/>
<path transform="translate(164,1403)" d="m0 0 2 1v2l3 1v4l-4-1-4-6z" fill="#F7F7F7"/>
<path transform="translate(252,759)" d="m0 0 6 2v3l3 1h-11l-1-2 4 1z" fill="#96979D"/>
<path transform="translate(390,323)" d="m0 0 3 2-1 5-4-1-1-4z" fill="#D59D85"/>
<path transform="translate(335,75)" d="m0 0h4l1 4-2 2h-4l-1-4z" fill="#C47559"/>
<path transform="translate(173,1426)" d="m0 0 1 4-2 2-4-1-2-4z" fill="#80828B"/>
<path transform="translate(184,1403)" d="m0 0 4 2 1 4-5 1-2-4z" fill="#E4E4E4"/>
<path transform="translate(758,891)" d="m0 0 5 5v5h-4l-1-3z" fill="#92362A"/>
<path transform="translate(292,728)" d="m0 0h5v2h2v5l-2 1-1-3-4-2z" fill="#C2947E"/>
<path transform="translate(912,1362)" d="m0 0h5v5l-5 1z" fill="#CB9D87"/>
<path transform="translate(311,970)" d="m0 0 4 1 2 4h-7v-4z" fill="#82848C"/>
<path transform="translate(208,794)" d="m0 0 5 1 1 5h-4l-3-5z" fill="#F7C2AC"/>
<path transform="translate(253,747)" d="m0 0 4 1 4 4 2 5-4-2-6-7z" fill="#B4B2B3"/>
<path transform="translate(282,723)" d="m0 0 1 4 7-1 1-3-1 5-2 1-3-1v2l-4-2z" fill="#D29077"/>
<path transform="translate(844,528)" d="m0 0h9l-1 4-5 1-3-2z" fill="#FCFCFB"/>
<path transform="translate(154,1414)" d="m0 0h1v12h11v1h-11l-1 2-1-3z" fill="#8E8C8E"/>
<path transform="translate(261,1308)" d="m0 0 4 4-2 5-4-4z" fill="#CCCACB"/>
<path transform="translate(332,969)" d="m0 0h2v5l-1 1h-5l1-4z" fill="#757A89"/>
<path transform="translate(722,912)" d="m0 0 4 2-1 4h-3v-2l-3-1v-2z" fill="#6F1B1B"/>
<path transform="translate(62,906)" d="m0 0h2v9h-3l-1-5z" fill="#84858C"/>
<path transform="translate(639,109)" d="m0 0 5 1-2 5-3 1z" fill="#20191B"/>
<path transform="translate(663,975)" d="m0 0h6l3 3v2l-5 1v-4h-4z" fill="#C6C5C8"/>
<path transform="translate(734,908)" d="m0 0 4 1-3 9-2-3-1-3z" fill="#BA6251"/>
<path transform="translate(819,524)" d="m0 0h10l-4 4h-6z" fill="#FBFAFA"/>
</svg>
